<svg width="1320" height="1320" viewBox="0 0 1320 1320" fill="none" xmlns="http://www.w3.org/2000/svg">
<g clip-path="url(#clip0_404_3755)">
<path fill-rule="evenodd" clip-rule="evenodd" d="M907.746 132.756C918.509 130.271 929.248 136.982 931.733 147.744C933.514 155.459 930.57 163.16 924.796 167.819L1024.72 144.751C1018.94 149.41 1016 157.111 1017.78 164.826C1020.27 175.588 1031 182.299 1041.77 179.814C1052.53 177.329 1059.24 166.59 1056.76 155.828C1054.97 148.113 1048.95 142.482 1041.72 140.825L1091.68 129.291L1103.21 179.25C1098.56 173.477 1090.85 170.534 1083.14 172.315C1072.38 174.8 1065.67 185.539 1068.15 196.301C1070.64 207.064 1081.38 213.774 1092.14 211.29C1099.85 209.509 1105.48 203.487 1107.14 196.255L1118.68 246.215L1168.64 234.681C1162.86 239.34 1159.92 247.042 1161.7 254.756C1164.18 265.519 1174.92 272.229 1185.69 269.744C1196.45 267.26 1203.16 256.521 1200.67 245.758C1198.89 238.044 1192.87 232.412 1185.64 230.756L1235.6 219.221L1247.13 269.181C1242.47 263.408 1234.77 260.464 1227.06 262.245C1216.3 264.73 1209.59 275.469 1212.07 286.232C1214.56 296.994 1225.29 303.705 1236.06 301.22C1243.77 299.439 1249.4 293.417 1251.06 286.185L1262.59 336.146L1212.63 347.68C1218.41 343.021 1221.35 335.319 1219.57 327.605C1217.08 316.842 1206.35 310.132 1195.58 312.617C1184.82 315.101 1178.11 325.841 1180.59 336.603C1182.38 344.317 1188.4 349.949 1195.63 351.606L1145.67 363.14L1157.2 413.099C1152.54 407.326 1144.84 404.383 1137.13 406.164C1126.37 408.648 1119.66 419.388 1122.14 430.15C1124.62 440.913 1135.36 447.623 1146.13 445.139C1153.84 443.358 1159.47 437.335 1161.13 430.104L1172.66 480.064L1222.62 468.53C1216.85 473.189 1213.91 480.89 1215.69 488.605C1218.17 499.367 1228.91 506.078 1239.67 503.593C1250.44 501.108 1257.15 490.369 1254.66 479.607C1252.88 471.892 1246.86 466.261 1239.63 464.604L1289.59 453.07L1301.12 503.029C1296.46 497.256 1288.76 494.313 1281.05 496.094C1270.28 498.579 1263.57 509.318 1266.06 520.08C1268.54 530.843 1279.28 537.554 1290.05 535.069C1297.76 533.288 1303.39 527.266 1305.05 520.034L1316.58 569.994L1266.62 581.529C1272.39 576.87 1275.34 569.168 1273.56 561.454C1271.07 550.691 1260.33 543.981 1249.57 546.465C1238.81 548.95 1232.1 559.689 1234.58 570.452C1236.36 578.166 1242.39 583.798 1249.62 585.454L1199.66 596.989L1211.19 646.948C1206.53 641.175 1198.83 638.232 1191.12 640.013C1180.35 642.497 1173.64 653.236 1176.13 663.999C1178.61 674.762 1189.35 681.472 1200.11 678.987C1207.83 677.206 1213.46 671.184 1215.12 663.953L1226.65 713.913L1276.61 702.379C1270.84 707.038 1267.89 714.739 1269.68 722.454C1272.16 733.216 1282.9 739.927 1293.66 737.442C1304.42 734.957 1311.13 724.218 1308.65 713.456C1306.87 705.741 1300.85 700.11 1293.62 698.453L1343.58 686.919L1355.11 736.878C1350.45 731.105 1342.75 728.162 1335.04 729.943C1324.27 732.428 1317.56 743.167 1320.05 753.929C1322.53 764.692 1333.27 771.402 1344.03 768.918C1351.75 767.137 1357.38 761.115 1359.04 753.883L1370.57 803.843L1320.61 815.378C1326.38 810.718 1329.33 803.017 1327.55 795.303C1325.06 784.54 1314.32 777.83 1303.56 780.314C1292.8 782.799 1286.09 793.538 1288.57 804.301C1290.35 812.015 1296.37 817.646 1303.61 819.303L1253.65 830.837L1265.18 880.797C1260.52 875.024 1252.82 872.08 1245.11 873.861C1234.34 876.346 1227.63 887.085 1230.12 897.848C1232.6 908.61 1243.34 915.321 1254.1 912.836C1261.82 911.055 1267.45 905.033 1269.11 897.802L1280.64 947.762L1230.68 959.296C1236.45 954.637 1239.4 946.936 1237.62 939.221C1235.13 928.459 1224.39 921.748 1213.63 924.233C1202.87 926.718 1196.16 937.457 1198.64 948.219C1200.42 955.934 1206.44 961.565 1213.68 963.222L1113.76 986.29C1120.99 987.947 1127.01 993.578 1128.79 1001.29C1131.27 1012.06 1124.56 1022.79 1113.8 1025.28C1103.04 1027.76 1092.3 1021.05 1089.81 1010.29C1088.03 1002.58 1090.98 994.875 1096.75 990.216L996.831 1013.28C1002.6 1008.63 1005.55 1000.92 1003.77 993.209C1001.28 982.447 990.543 975.736 979.781 978.221C969.018 980.706 962.307 991.445 964.792 1002.21C966.573 1009.92 972.595 1015.55 979.827 1017.21L879.906 1040.28C887.138 1041.94 893.16 1047.57 894.941 1055.28C897.426 1066.04 890.715 1076.78 879.952 1079.27C869.19 1081.75 858.451 1075.04 855.966 1064.28C854.185 1056.56 857.129 1048.86 862.902 1044.2L762.982 1067.27C768.755 1062.61 771.699 1054.91 769.918 1047.2C767.433 1036.44 756.694 1029.72 745.932 1032.21C735.169 1034.69 728.459 1045.43 730.943 1056.2C732.724 1063.91 738.746 1069.54 745.978 1071.2L646.057 1094.27C653.289 1095.92 659.311 1101.55 661.092 1109.27C663.577 1120.03 656.866 1130.77 646.104 1133.26C635.341 1135.74 624.602 1129.03 622.117 1118.27C620.336 1110.55 623.28 1102.85 629.054 1098.19L529.133 1121.26C534.906 1116.6 537.85 1108.9 536.069 1101.19C533.585 1090.42 522.846 1083.71 512.083 1086.2C501.32 1088.68 494.61 1099.42 497.095 1110.18C498.876 1117.9 504.898 1123.53 512.129 1125.19L412.209 1148.25C419.44 1149.91 425.462 1155.54 427.243 1163.26C429.728 1174.02 423.017 1184.76 412.255 1187.24C401.492 1189.73 390.753 1183.02 388.268 1172.26C386.487 1164.54 389.431 1156.84 395.205 1152.18L295.284 1175.25C301.058 1170.59 304.002 1162.89 302.221 1155.17C299.736 1144.41 288.997 1137.7 278.234 1140.19C267.472 1142.67 260.761 1153.41 263.246 1164.17C265.027 1171.89 271.049 1177.52 278.28 1179.17L228.32 1190.71L216.786 1140.75C221.445 1146.52 229.146 1149.47 236.861 1147.69C247.623 1145.2 254.334 1134.46 251.849 1123.7C249.364 1112.94 238.625 1106.23 227.863 1108.71C220.149 1110.49 214.517 1116.51 212.86 1123.74L201.326 1073.78L151.366 1085.32C157.139 1080.66 160.083 1072.96 158.302 1065.24C155.817 1054.48 145.078 1047.77 134.316 1050.26C123.553 1052.74 116.843 1063.48 119.327 1074.24C121.108 1081.96 127.13 1087.59 134.362 1089.24L84.4016 1100.78L72.8673 1050.82C77.5265 1056.59 85.2278 1059.54 92.9422 1057.75C103.705 1055.27 110.415 1044.53 107.931 1033.77C105.446 1023.01 94.7067 1016.3 83.9441 1018.78C76.2301 1020.56 70.5984 1026.58 68.9415 1033.81L57.4074 983.854L107.368 972.32C101.594 976.979 98.6504 984.681 100.431 992.395C102.916 1003.16 113.655 1009.87 124.418 1007.38C135.18 1004.9 141.891 994.159 139.406 983.397C137.625 975.683 131.603 970.051 124.372 968.394L174.332 956.86L162.798 906.9C167.457 912.673 175.158 915.617 182.872 913.836C193.635 911.351 200.346 900.612 197.861 889.85C195.376 879.087 184.637 872.377 173.874 874.861C166.16 876.642 160.529 882.664 158.872 889.895L147.338 839.936L97.3775 851.47C103.151 846.811 106.095 839.109 104.314 831.395C101.829 820.633 91.09 813.922 80.3274 816.407C69.5648 818.891 62.8543 829.631 65.339 840.393C67.12 848.108 73.142 853.739 80.3736 855.396L30.4133 866.93L18.8791 816.97C23.5382 822.743 31.2396 825.687 38.9539 823.906C49.7165 821.421 56.4271 810.682 53.9423 799.92C51.4576 789.157 40.7185 782.446 29.9559 784.931C22.2419 786.712 16.6102 792.734 14.9532 799.965L3.41919 750.005L53.3794 738.471C47.606 743.13 44.6621 750.832 46.4431 758.546C48.9278 769.309 59.6669 776.019 70.4295 773.534C81.1921 771.05 87.9027 760.311 85.4179 749.548C83.6369 741.834 77.6149 736.202 70.3833 734.546L120.344 723.011L108.809 673.051C113.469 678.824 121.17 681.768 128.884 679.987C139.647 677.503 146.357 666.764 143.873 656.001C141.388 645.238 130.649 638.528 119.886 641.013C112.172 642.794 106.54 648.815 104.883 656.046L93.3495 606.087L43.3892 617.621C49.1626 612.962 52.1065 605.261 50.3255 597.546C47.8408 586.784 37.1017 580.073 26.3391 582.558C15.5765 585.043 8.86601 595.782 11.3507 606.544C13.1317 614.259 19.1538 619.89 26.3853 621.547L-23.5749 633.081L-35.1092 583.121C-30.45 588.894 -22.7487 591.838 -15.0343 590.057C-4.27172 587.572 2.4388 576.833 -0.0459382 566.071C-2.53068 555.308 -13.2698 548.598 -24.0324 551.082C-31.7464 552.863 -37.3781 558.885 -39.035 566.116L-50.5691 516.157L-0.608809 504.622C-6.38221 509.282 -9.32614 516.983 -7.54514 524.697C-5.0604 535.46 5.67869 542.17 16.4413 539.686C27.2039 537.201 33.9144 526.462 31.4297 515.699C29.6487 507.985 23.6266 502.353 16.3951 500.697L66.3553 489.163L54.8211 439.202C59.4803 444.976 67.1816 447.92 74.896 446.139C85.6586 443.654 92.3691 432.915 89.8843 422.152C87.3996 411.39 76.6605 404.679 65.8979 407.164C58.1839 408.945 52.5522 414.966 50.8952 422.197L39.3612 372.238L89.3215 360.704C83.5481 365.363 80.6041 373.064 82.3851 380.779C84.8699 391.541 95.609 398.252 106.372 395.767C117.134 393.282 123.845 382.543 121.36 371.781C119.579 364.066 113.557 358.435 106.325 356.778L206.246 333.71C199.014 332.053 192.992 326.422 191.211 318.707C188.727 307.945 195.437 297.206 206.2 294.721C216.962 292.236 227.701 298.947 230.186 309.709C231.967 317.424 229.023 325.125 223.25 329.784L323.17 306.716C317.397 311.375 314.453 319.076 316.234 326.79C318.719 337.553 329.458 344.264 340.22 341.779C350.983 339.294 357.693 328.555 355.209 317.792C353.428 310.078 347.406 304.447 340.174 302.79L440.095 279.722C432.863 278.065 426.841 272.433 425.06 264.719C422.575 253.956 429.286 243.217 440.049 240.733C450.811 238.248 461.55 244.958 464.035 255.721C465.816 263.435 462.872 271.137 457.099 275.796L557.019 252.727C551.246 257.387 548.302 265.088 550.083 272.802C552.568 283.565 563.307 290.275 574.069 287.791C584.832 285.306 591.542 274.567 589.058 263.804C587.277 256.09 581.255 250.458 574.023 248.802L673.944 225.733C666.712 224.077 660.69 218.445 658.909 210.731C656.424 199.968 663.135 189.229 673.897 186.744C684.66 184.26 695.399 190.97 697.884 201.733C699.665 209.447 696.721 217.148 690.947 221.808L790.868 198.739C785.095 203.398 782.151 211.1 783.932 218.814C786.416 229.577 797.155 236.287 807.918 233.802C818.681 231.318 825.391 220.579 822.906 209.816C821.125 202.102 815.103 196.47 807.872 194.813L907.792 171.745C900.561 170.088 894.539 164.457 892.758 156.743C890.273 145.98 896.984 135.241 907.746 132.756ZM368.389 997.242C358.165 999.602 351.79 1009.8 354.15 1020.03C355.842 1027.36 361.561 1032.71 368.434 1034.28L368.436 1036.23L319.45 1047.54L330.759 1096.52L329.006 1097.38C324.578 1091.89 317.261 1089.1 309.935 1090.79C299.71 1093.15 293.335 1103.35 295.696 1113.58C298.056 1123.8 308.258 1130.18 318.483 1127.81C325.81 1126.12 331.161 1120.4 332.736 1113.53L334.685 1113.53L345.994 1162.52L394.98 1151.21L395.832 1152.96C390.346 1157.39 387.551 1164.7 389.243 1172.03C391.603 1182.25 401.805 1188.63 412.03 1186.27C422.254 1183.91 428.629 1173.71 426.269 1163.48C424.577 1156.16 418.858 1150.8 411.986 1149.23L411.984 1147.28L460.97 1135.97L449.66 1086.99L451.413 1086.13C455.841 1091.62 463.158 1094.41 470.485 1092.72C480.709 1090.36 487.084 1080.16 484.724 1069.94C482.363 1059.71 472.161 1053.34 461.936 1055.7C454.61 1057.39 449.258 1063.11 447.683 1069.98L445.734 1069.98L434.425 1021L385.439 1032.3L384.587 1030.55C390.074 1026.12 392.868 1018.81 391.176 1011.48C388.816 1001.26 378.614 994.881 368.389 997.242ZM602.238 943.253C592.014 945.614 585.639 955.816 587.999 966.041C589.691 973.368 595.41 978.719 602.282 980.293L602.284 982.242L553.299 993.552L564.608 1042.54L562.855 1043.39C558.427 1037.9 551.11 1035.11 543.784 1036.8C533.559 1039.16 527.184 1049.36 529.545 1059.59C531.905 1069.81 542.107 1076.19 552.332 1073.83C559.659 1072.13 565.01 1066.42 566.585 1059.54L568.533 1059.54L579.843 1108.53L628.829 1097.22L629.681 1098.97C624.194 1103.4 621.4 1110.72 623.092 1118.04C625.452 1128.27 635.654 1134.64 645.879 1132.28C656.103 1129.92 662.478 1119.72 660.118 1109.49C658.426 1102.17 652.707 1096.82 645.834 1095.24L645.833 1093.29L694.818 1081.98L683.509 1033L685.262 1032.14C689.69 1037.63 697.006 1040.43 704.333 1038.73C714.558 1036.37 720.933 1026.17 718.572 1015.95C716.212 1005.72 706.01 999.348 695.785 1001.71C688.459 1003.4 683.107 1009.12 681.532 1015.99L679.583 1015.99L668.274 967.007L619.288 978.317L618.436 976.564C623.922 972.136 626.717 964.819 625.025 957.492C622.665 947.268 612.463 940.893 602.238 943.253ZM836.087 889.265C825.863 891.626 819.488 901.828 821.848 912.052C823.54 919.379 829.259 924.731 836.131 926.305L836.133 928.254L787.147 939.563L798.456 988.548L796.704 989.401C792.276 983.915 784.959 981.121 777.632 982.812C767.408 985.173 761.033 995.375 763.393 1005.6C765.754 1015.82 775.956 1022.2 786.18 1019.84C793.507 1018.15 798.859 1012.43 800.433 1005.56L802.382 1005.55L813.692 1054.54L862.677 1043.23L863.53 1044.98C858.043 1049.41 855.249 1056.73 856.94 1064.05C859.301 1074.28 869.503 1080.65 879.728 1078.29C889.952 1075.93 896.327 1065.73 893.966 1055.51C892.275 1048.18 886.556 1042.83 879.683 1041.25L879.681 1039.3L928.667 1027.99L917.358 979.009L919.11 978.156C923.538 983.643 930.855 986.437 938.182 984.746C948.407 982.385 954.782 972.183 952.421 961.959C950.061 951.734 939.859 945.359 929.634 947.72C922.307 949.411 916.956 955.13 915.381 962.002L913.432 962.004L902.123 913.019L853.137 924.328L852.285 922.576C857.771 918.148 860.566 910.831 858.874 903.504C856.514 893.28 846.311 886.905 836.087 889.265ZM1069.94 835.277C1059.71 837.637 1053.34 847.84 1055.7 858.064C1057.39 865.391 1063.11 870.742 1069.98 872.317L1069.98 874.266L1021 885.575L1032.31 934.56L1030.55 935.413C1026.12 929.926 1018.81 927.132 1011.48 928.824C1001.26 931.184 994.882 941.387 997.242 951.611C999.603 961.836 1009.8 968.211 1020.03 965.85C1027.36 964.158 1032.71 958.439 1034.28 951.567L1036.23 951.565L1047.54 1000.55L1096.53 989.241L1097.38 990.994C1091.89 995.422 1089.1 1002.74 1090.79 1010.07C1093.15 1020.29 1103.35 1026.67 1113.58 1024.3C1123.8 1021.94 1130.18 1011.74 1127.82 1001.52C1126.12 994.191 1120.4 988.839 1113.53 987.265L1113.53 985.316L1162.52 974.007L1151.21 925.021L1152.96 924.168C1157.39 929.655 1164.7 932.449 1172.03 930.758C1182.26 928.397 1188.63 918.195 1186.27 907.971C1183.91 897.746 1173.71 891.371 1163.48 893.732C1156.16 895.423 1150.8 901.142 1149.23 908.014L1147.28 908.016L1135.97 859.031L1086.99 870.34L1086.13 868.588C1091.62 864.16 1094.41 856.843 1092.72 849.516C1090.36 839.291 1080.16 832.916 1069.94 835.277ZM213.024 1120.01C215.56 1114.03 220.825 1109.31 227.638 1107.74C238.938 1105.13 250.214 1112.17 252.823 1123.47C255.432 1134.77 248.386 1146.05 237.086 1148.66C230.272 1150.23 223.47 1148.29 218.57 1144.03L229.07 1189.51L274.546 1179.01C268.569 1176.47 263.844 1171.21 262.271 1164.4C259.662 1153.1 266.708 1141.82 278.009 1139.21C289.31 1136.6 300.586 1143.65 303.195 1154.95C304.768 1161.76 302.829 1168.56 298.569 1173.46L344.045 1162.97L333.546 1117.49C331.01 1123.47 325.746 1128.19 318.933 1129.76C307.632 1132.37 296.356 1125.33 293.747 1114.03C291.138 1102.73 298.184 1091.45 309.485 1088.84C316.298 1087.27 323.1 1089.2 328 1093.46L317.501 1047.99L272.024 1058.49C278.002 1061.03 282.726 1066.29 284.299 1073.1C286.908 1084.4 279.862 1095.68 268.561 1098.29C257.261 1100.9 245.984 1093.85 243.376 1082.55C241.802 1075.74 243.741 1068.93 248.002 1064.03L202.525 1074.53L213.024 1120.01ZM446.873 1066.02C449.409 1060.04 454.674 1055.32 461.487 1053.75C472.787 1051.14 484.063 1058.18 486.672 1069.49C489.281 1080.79 482.235 1092.06 470.934 1094.67C464.121 1096.24 457.319 1094.31 452.419 1090.04L462.918 1135.52L508.395 1125.02C502.417 1122.49 497.693 1117.22 496.12 1110.41C493.511 1099.11 500.557 1087.83 511.858 1085.22C523.159 1082.61 534.435 1089.66 537.044 1100.96C538.617 1107.77 536.678 1114.58 532.417 1119.48L577.894 1108.98L567.395 1063.5C564.859 1069.48 559.595 1074.2 552.782 1075.78C541.481 1078.38 530.205 1071.34 527.596 1060.04C524.987 1048.74 532.033 1037.46 543.334 1034.85C550.147 1033.28 556.949 1035.22 561.848 1039.48L551.35 994.002L505.873 1004.5C511.851 1007.04 516.575 1012.3 518.148 1019.11C520.757 1030.41 513.711 1041.69 502.41 1044.3C491.109 1046.91 479.833 1039.86 477.224 1028.56C475.651 1021.75 477.59 1014.95 481.851 1010.05L436.374 1020.55L446.873 1066.02ZM680.722 1012.03C683.258 1006.06 688.522 1001.33 695.335 999.759C706.636 997.15 717.912 1004.2 720.521 1015.5C723.13 1026.8 716.084 1038.07 704.783 1040.68C697.97 1042.26 691.168 1040.32 686.268 1036.06L696.767 1081.53L742.244 1071.03C736.266 1068.5 731.542 1063.23 729.969 1056.42C727.36 1045.12 734.406 1033.84 745.707 1031.23C757.008 1028.63 768.284 1035.67 770.893 1046.97C772.466 1053.79 770.527 1060.59 766.266 1065.49L811.743 1054.99L801.244 1009.51C798.708 1015.49 793.444 1020.21 786.63 1021.79C775.33 1024.4 764.054 1017.35 761.445 1006.05C758.836 994.749 765.882 983.472 777.182 980.863C783.995 979.291 790.797 981.228 795.697 985.488L785.199 940.013L739.722 950.512C745.699 953.049 750.424 958.312 751.997 965.126C754.606 976.426 747.56 987.702 736.259 990.311C724.958 992.92 713.682 985.874 711.073 974.574C709.5 967.76 711.439 960.958 715.7 956.058L670.223 966.557L680.722 1012.03ZM914.57 958.044C917.107 952.067 922.371 947.344 929.184 945.771C940.485 943.162 951.761 950.208 954.37 961.509C956.979 972.81 949.933 984.086 938.632 986.695C931.818 988.268 925.017 986.329 920.117 982.068L930.616 1027.54L976.093 1017.05C970.115 1014.51 965.391 1009.25 963.818 1002.43C961.209 991.132 968.255 979.856 979.556 977.247C990.856 974.638 1002.13 981.684 1004.74 992.985C1006.31 999.798 1004.38 1006.6 1000.11 1011.5L1045.59 1001L1035.09 955.524C1032.56 961.502 1027.29 966.226 1020.48 967.799C1009.18 970.408 997.902 963.362 995.293 952.061C992.684 940.76 999.731 929.484 1011.03 926.875C1017.84 925.302 1024.65 927.24 1029.55 931.5L1019.05 886.025L973.571 896.524C979.548 899.06 984.272 904.324 985.846 911.137C988.454 922.438 981.408 933.714 970.108 936.323C958.807 938.932 947.531 931.886 944.922 920.585C943.349 913.772 945.288 906.97 949.548 902.07L904.072 912.569L914.57 958.044ZM1148.42 904.056C1150.96 898.079 1156.22 893.356 1163.03 891.783C1174.33 889.174 1185.61 896.22 1188.22 907.521C1190.83 918.821 1183.78 930.097 1172.48 932.706C1165.67 934.279 1158.87 932.341 1153.97 928.08L1164.46 973.557L1209.94 963.058C1203.96 960.521 1199.24 955.258 1197.67 948.444C1195.06 937.143 1202.1 925.867 1213.4 923.258C1224.71 920.649 1235.98 927.696 1238.59 938.996C1240.16 945.81 1238.22 952.612 1233.96 957.512L1279.44 947.012L1268.94 901.536C1266.41 907.513 1261.14 912.237 1254.33 913.811C1243.03 916.42 1231.75 909.373 1229.14 898.073C1226.53 886.772 1233.58 875.496 1244.88 872.887C1251.69 871.314 1258.5 873.252 1263.39 877.511L1252.9 832.037L1207.42 842.536C1213.4 845.072 1218.12 850.336 1219.69 857.149C1222.3 868.45 1215.26 879.726 1203.96 882.335C1192.66 884.944 1181.38 877.898 1178.77 866.597C1177.2 859.784 1179.14 852.982 1183.4 848.082L1137.92 858.581L1148.42 904.056ZM224.471 907.311C214.246 909.672 207.871 919.874 210.232 930.098C211.923 937.425 217.643 942.777 224.515 944.351L224.517 946.3L175.531 957.61L186.84 1006.59L185.088 1007.45C180.66 1001.96 173.343 999.167 166.016 1000.86C155.792 1003.22 149.417 1013.42 151.777 1023.65C154.138 1033.87 164.34 1040.25 174.564 1037.88C181.891 1036.19 187.243 1030.47 188.817 1023.6L190.766 1023.6L202.075 1072.59L251.061 1061.28L251.914 1063.03C246.427 1067.46 243.633 1074.77 245.324 1082.1C247.685 1092.32 257.887 1098.7 268.111 1096.34C278.336 1093.98 284.711 1083.78 282.35 1073.55C280.659 1066.23 274.94 1060.87 268.067 1059.3L268.065 1057.35L317.051 1046.04L305.742 997.055L307.494 996.203C311.922 1001.69 319.239 1004.48 326.566 1002.79C336.791 1000.43 343.166 990.23 340.805 980.005C338.445 969.781 328.242 963.406 318.018 965.766C310.691 967.458 305.34 973.176 303.765 980.048L301.816 980.05L290.507 931.065L241.521 942.375L240.668 940.622C246.155 936.194 248.95 928.877 247.258 921.55C244.897 911.326 234.695 904.951 224.471 907.311ZM458.32 853.323C448.095 855.684 441.72 865.886 444.081 876.11C445.772 883.437 451.491 888.789 458.364 890.363L458.366 892.312L409.38 903.621L420.689 952.606L418.937 953.459C414.509 947.973 407.192 945.179 399.865 946.87C389.641 949.231 383.266 959.433 385.626 969.657C387.987 979.882 398.189 986.257 408.413 983.896C415.74 982.205 421.091 976.486 422.666 969.613L424.615 969.611L435.924 1018.6L484.91 1007.29L485.763 1009.04C480.276 1013.47 477.482 1020.78 479.173 1028.11C481.534 1038.34 491.736 1044.71 501.96 1042.35C512.185 1039.99 518.56 1029.79 516.199 1019.56C514.508 1012.24 508.788 1006.89 501.916 1005.31L501.914 1003.36L550.9 992.053L539.591 943.067L541.343 942.214C545.771 947.701 553.088 950.495 560.415 948.804C570.639 946.443 577.014 936.241 574.654 926.017C572.293 915.792 562.091 909.417 551.867 911.778C544.54 913.469 539.188 919.188 537.614 926.06L535.665 926.062L524.356 877.077L475.37 888.386L474.517 886.634C480.004 882.206 482.798 874.889 481.107 867.562C478.746 857.338 468.544 850.963 458.32 853.323ZM692.168 799.335C681.944 801.695 675.569 811.898 677.93 822.122C679.621 829.449 685.34 834.8 692.213 836.375L692.215 838.324L643.229 849.633L654.538 898.618L652.785 899.471C648.357 893.984 641.041 891.19 633.714 892.882C623.489 895.242 617.114 905.445 619.475 915.669C621.835 925.894 632.037 932.269 642.262 929.908C649.589 928.216 654.94 922.497 656.515 915.625L658.464 915.623L669.773 964.609L718.759 953.299L719.612 955.052C714.125 959.48 711.33 966.797 713.022 974.124C715.382 984.348 725.585 990.723 735.809 988.363C746.033 986.002 752.408 975.8 750.048 965.576C748.356 958.249 742.637 952.897 735.765 951.323L735.763 949.374L784.749 938.065L773.439 889.079L775.192 888.226C779.62 893.713 786.937 896.507 794.264 894.816C804.488 892.455 810.863 882.253 808.503 872.029C806.142 861.804 795.94 855.429 785.716 857.79C778.389 859.481 773.037 865.2 771.462 872.072L769.514 872.074L758.204 823.089L709.219 834.398L708.366 832.646C713.853 828.218 716.647 820.901 714.956 813.574C712.595 803.349 702.393 796.974 692.168 799.335ZM926.017 745.347C915.793 747.707 909.418 757.909 911.778 768.134C913.47 775.461 919.189 780.812 926.062 782.387L926.063 784.336L877.078 795.645L888.387 844.63L886.634 845.482C882.206 839.996 874.889 837.202 867.563 838.894C857.338 841.254 850.963 851.456 853.324 861.681C855.684 871.905 865.886 878.28 876.111 875.92C883.438 874.228 888.789 868.509 890.364 861.637L892.313 861.635L903.622 910.62L952.608 899.311L953.46 901.064C947.974 905.492 945.179 912.808 946.871 920.135C949.231 930.36 959.433 936.735 969.658 934.374C979.882 932.014 986.257 921.812 983.897 911.587C982.205 904.26 976.486 898.909 969.614 897.334L969.612 895.386L1018.6 884.076L1007.29 835.09L1009.04 834.238C1013.47 839.725 1020.79 842.519 1028.11 840.827C1038.34 838.467 1044.71 828.265 1042.35 818.04C1039.99 807.816 1029.79 801.441 1019.56 803.801C1012.24 805.493 1006.89 811.211 1005.31 818.084L1003.36 818.086L992.053 769.101L943.067 780.41L942.215 778.657C947.702 774.229 950.496 766.913 948.804 759.586C946.444 749.361 936.242 742.986 926.017 745.347ZM1159.87 691.358C1149.64 693.719 1143.27 703.921 1145.63 714.145C1147.32 721.472 1153.04 726.824 1159.91 728.398L1159.91 730.347L1110.93 741.657L1122.24 790.642L1120.48 791.494C1116.05 786.008 1108.74 783.214 1101.41 784.905C1091.19 787.266 1084.81 797.468 1087.17 807.693C1089.53 817.917 1099.74 824.292 1109.96 821.932C1117.29 820.24 1122.64 814.521 1124.21 807.648L1126.16 807.646L1137.47 856.632L1186.46 845.323L1187.31 847.075C1181.82 851.503 1179.03 858.82 1180.72 866.147C1183.08 876.372 1193.28 882.747 1203.51 880.386C1213.73 878.026 1220.11 867.824 1217.75 857.599C1216.05 850.272 1210.33 844.921 1203.46 843.346L1203.46 841.397L1252.45 830.088L1241.14 781.102L1242.89 780.25C1247.32 785.736 1254.63 788.531 1261.96 786.839C1272.19 784.479 1278.56 774.277 1276.2 764.052C1273.84 753.828 1263.64 747.453 1253.41 749.813C1246.09 751.505 1240.73 757.223 1239.16 764.095L1237.21 764.097L1225.9 715.112L1176.92 726.422L1176.06 724.669C1181.55 720.241 1184.34 712.924 1182.65 705.597C1180.29 695.373 1170.09 688.998 1159.87 691.358ZM69.1054 1030.08C71.642 1024.1 76.9062 1019.38 83.7192 1017.81C95.0199 1015.2 106.296 1022.24 108.905 1033.54C111.514 1044.84 104.468 1056.12 93.1671 1058.73C86.3535 1060.3 79.5517 1058.36 74.6519 1054.1L85.151 1099.58L130.628 1089.08C124.65 1086.54 119.926 1081.28 118.353 1074.47C115.744 1063.17 122.79 1051.89 134.091 1049.28C145.391 1046.67 156.667 1053.72 159.276 1065.02C160.849 1071.83 158.911 1078.63 154.65 1083.53L200.127 1073.04L189.628 1027.56C187.091 1033.54 181.828 1038.26 175.014 1039.83C163.713 1042.44 152.437 1035.4 149.828 1024.1C147.219 1012.79 154.266 1001.52 165.566 998.91C172.379 997.337 179.181 999.274 184.081 1003.53L173.582 958.059L128.106 968.559C134.083 971.095 138.807 976.358 140.381 983.172C142.99 994.473 135.943 1005.75 124.643 1008.36C113.342 1010.97 102.066 1003.92 99.457 992.62C97.8839 985.806 99.8226 979.004 104.083 974.105L58.6068 984.604L69.1054 1030.08ZM302.954 976.09C305.491 970.113 310.755 965.39 317.568 963.817C328.869 961.208 340.145 968.254 342.754 979.555C345.363 990.856 338.317 1002.13 327.016 1004.74C320.202 1006.31 313.401 1004.38 308.501 1000.11L319 1045.59L364.476 1035.09C358.499 1032.56 353.775 1027.29 352.202 1020.48C349.593 1009.18 356.639 997.902 367.939 995.293C379.24 992.684 390.516 999.73 393.125 1011.03C394.698 1017.84 392.76 1024.65 388.499 1029.55L433.975 1019.05L423.476 973.57C420.94 979.548 415.677 984.272 408.863 985.845C397.562 988.454 386.286 981.408 383.677 970.107C381.068 958.806 388.114 947.53 399.415 944.921C406.228 943.349 413.03 945.286 417.93 949.546L407.431 904.071L361.955 914.57C367.932 917.107 372.656 922.37 374.229 929.184C376.838 940.484 369.792 951.76 358.492 954.369C347.191 956.978 335.915 949.932 333.306 938.632C331.733 931.818 333.671 925.016 337.932 920.116L292.456 930.615L302.954 976.09ZM536.803 922.102C539.34 916.125 544.604 911.402 551.417 909.829C562.718 907.22 573.994 914.266 576.603 925.567C579.212 936.868 572.165 948.144 560.865 950.753C554.051 952.326 547.249 950.387 542.35 946.126L552.849 991.603L598.325 981.104C592.348 978.568 587.624 973.304 586.051 966.49C583.442 955.19 590.488 943.914 601.788 941.305C613.089 938.696 624.365 945.742 626.974 957.042C628.547 963.856 626.608 970.658 622.348 975.558L667.824 965.059L657.325 919.582C654.789 925.56 649.525 930.284 642.712 931.857C631.411 934.466 620.135 927.42 617.526 916.119C614.917 904.818 621.963 893.542 633.264 890.933C640.077 889.36 646.879 891.298 651.779 895.558L641.28 850.083L595.803 860.582C601.781 863.118 606.505 868.382 608.078 875.195C610.687 886.496 603.641 897.772 592.34 900.381C581.04 902.99 569.764 895.944 567.155 884.643C565.582 877.83 567.52 871.028 571.781 866.128L526.304 876.627L536.803 922.102ZM770.652 868.114C773.188 862.137 778.453 857.414 785.266 855.841C796.566 853.232 807.842 860.278 810.451 871.579C813.06 882.879 806.014 894.155 794.714 896.764C787.9 898.337 781.098 896.399 776.198 892.138L786.697 937.615L832.174 927.116C826.197 924.579 821.472 919.316 819.899 912.502C817.29 901.201 824.336 889.925 835.637 887.316C846.938 884.707 858.214 891.754 860.823 903.054C862.396 909.868 860.457 916.67 856.196 921.569L901.673 911.07L891.174 865.594C888.638 871.571 883.374 876.295 876.561 877.868C865.26 880.477 853.984 873.431 851.375 862.131C848.766 850.83 855.812 839.554 867.113 836.945C873.926 835.372 880.728 837.31 885.628 841.569L875.129 796.095L829.652 806.594C835.63 809.13 840.354 814.394 841.927 821.207C844.536 832.508 837.49 843.784 826.189 846.393C814.888 849.002 803.612 841.956 801.003 830.655C799.43 823.841 801.369 817.04 805.63 812.14L760.153 822.639L770.652 868.114ZM1004.5 814.125C1007.04 808.149 1012.3 803.425 1019.11 801.853C1030.42 799.244 1041.69 806.29 1044.3 817.59C1046.91 828.891 1039.86 840.167 1028.56 842.776C1021.75 844.349 1014.95 842.41 1010.05 838.15L1020.55 883.626L1066.02 873.127C1060.05 870.591 1055.32 865.328 1053.75 858.514C1051.14 847.213 1058.19 835.937 1069.49 833.328C1080.79 830.719 1092.06 837.765 1094.67 849.066C1096.24 855.88 1094.31 862.681 1090.05 867.581L1135.52 857.082L1125.02 811.606C1122.49 817.583 1117.22 822.307 1110.41 823.88C1099.11 826.489 1087.83 819.443 1085.22 808.142C1082.61 796.842 1089.66 785.566 1100.96 782.957C1107.77 781.384 1114.58 783.321 1119.48 787.581L1108.98 742.106L1063.5 752.606C1069.48 755.142 1074.2 760.405 1075.78 767.219C1078.38 778.52 1071.34 789.796 1060.04 792.405C1048.74 795.014 1037.46 787.968 1034.85 776.667C1033.28 769.853 1035.22 763.051 1039.48 758.152L994.002 768.651L1004.5 814.125ZM1238.35 760.137C1240.89 754.16 1246.15 749.437 1252.96 747.864C1264.26 745.255 1275.54 752.301 1278.15 763.602C1280.76 774.903 1273.71 786.179 1262.41 788.788C1255.6 790.361 1248.8 788.422 1243.9 784.161L1254.4 829.638L1299.87 819.139C1293.89 816.603 1289.17 811.339 1287.6 804.526C1284.99 793.225 1292.03 781.949 1303.33 779.34C1314.64 776.731 1325.91 783.777 1328.52 795.078C1330.09 801.891 1328.15 808.693 1323.89 813.593L1369.37 803.094L1358.87 757.617C1356.34 763.595 1351.07 768.319 1344.26 769.892C1332.96 772.501 1321.68 765.455 1319.07 754.154C1316.46 742.853 1323.51 731.577 1334.81 728.968C1341.62 727.396 1348.43 729.333 1353.33 733.593L1342.83 688.118L1297.35 698.617C1303.33 701.154 1308.05 706.417 1309.62 713.231C1312.23 724.531 1305.19 735.807 1293.89 738.416C1282.59 741.025 1271.31 733.979 1268.7 722.679C1267.13 715.865 1269.07 709.063 1273.33 704.163L1227.85 714.662L1238.35 760.137ZM314.401 763.393C304.177 765.753 297.802 775.955 300.162 786.18C301.854 793.507 307.573 798.858 314.445 800.433L314.447 802.382L265.461 813.691L276.771 862.676L275.018 863.529C270.59 858.042 263.273 855.248 255.946 856.94C245.722 859.3 239.347 869.503 241.707 879.727C244.068 889.951 254.27 896.326 264.495 893.966C271.822 892.274 277.173 886.555 278.747 879.683L280.696 879.681L292.006 928.667L340.992 917.357L341.844 919.11C336.357 923.538 333.563 930.855 335.255 938.182C337.615 948.406 347.817 954.781 358.042 952.421C368.266 950.06 374.641 939.858 372.281 929.634C370.589 922.307 364.87 916.955 357.997 915.381L357.995 913.432L406.981 902.122L395.672 853.137L397.425 852.284C401.853 857.771 409.169 860.565 416.496 858.874C426.721 856.513 433.096 846.311 430.735 836.087C428.375 825.862 418.173 819.487 407.948 821.848C400.621 823.539 395.27 829.258 393.695 836.13L391.746 836.132L380.437 787.147L331.451 798.456L330.599 796.704C336.085 792.276 338.88 784.959 337.188 777.632C334.828 767.407 324.626 761.032 314.401 763.393ZM548.25 709.405C538.025 711.765 531.65 721.967 534.011 732.192C535.703 739.519 541.422 744.87 548.294 746.445L548.296 748.394L499.31 759.703L510.619 808.688L508.867 809.54C504.439 804.054 497.122 801.26 489.795 802.952C479.571 805.312 473.196 815.514 475.556 825.739C477.917 835.963 488.119 842.338 498.343 839.978C505.67 838.286 511.022 832.567 512.596 825.695L514.545 825.693L525.854 874.678L574.84 863.369L575.693 865.122C570.206 869.55 567.412 876.866 569.103 884.193C571.464 894.418 581.666 900.793 591.89 898.432C602.115 896.072 608.49 885.87 606.129 875.645C604.438 868.318 598.719 862.967 591.846 861.392L591.844 859.444L640.83 848.134L629.521 799.148L631.273 798.296C635.701 803.782 643.018 806.577 650.345 804.885C660.57 802.525 666.945 792.323 664.584 782.098C662.224 771.874 652.021 765.499 641.797 767.859C634.47 769.551 629.119 775.269 627.544 782.142L625.595 782.143L614.286 733.159L565.3 744.468L564.447 742.715C569.934 738.287 572.729 730.971 571.037 723.644C568.677 713.419 558.474 707.044 548.25 709.405ZM782.099 655.416C771.874 657.777 765.499 667.979 767.86 678.203C769.551 685.53 775.27 690.882 782.143 692.456L782.145 694.405L733.159 705.715L744.468 754.699L742.716 755.552C738.288 750.066 730.971 747.272 723.644 748.963C713.42 751.324 707.045 761.526 709.405 771.751C711.766 781.975 721.968 788.35 732.192 785.989C739.519 784.298 744.871 778.579 746.445 771.706L748.394 771.704L759.703 820.69L808.689 809.381L809.542 811.133C804.055 815.561 801.261 822.878 802.952 830.205C805.313 840.43 815.515 846.805 825.739 844.444C835.964 842.084 842.339 831.882 839.978 821.657C838.287 814.33 832.568 808.979 825.695 807.404L825.693 805.455L874.679 794.146L863.37 745.16L865.122 744.307C869.55 749.794 876.867 752.589 884.194 750.897C894.418 748.537 900.793 738.334 898.433 728.11C896.072 717.886 885.87 711.511 875.646 713.871C868.319 715.563 862.968 721.281 861.393 728.153L859.444 728.155L848.135 679.17L799.149 690.48L798.296 688.727C803.783 684.299 806.577 676.982 804.886 669.655C802.525 659.431 792.323 653.056 782.099 655.416ZM1015.95 601.428C1005.72 603.789 999.348 613.991 1001.71 624.215C1003.4 631.542 1009.12 636.893 1015.99 638.468L1015.99 640.417L967.008 651.726L978.317 700.711L976.564 701.564C972.136 696.078 964.82 693.284 957.493 694.975C947.268 697.336 940.893 707.538 943.254 717.762C945.614 727.987 955.817 734.362 966.041 732.001C973.368 730.31 978.719 724.591 980.294 717.718L982.243 717.716L993.552 766.702L1042.54 755.393L1043.39 757.145C1037.9 761.573 1035.11 768.89 1036.8 776.217C1039.16 786.441 1049.36 792.816 1059.59 790.456C1069.81 788.095 1076.19 777.893 1073.83 767.669C1072.14 760.342 1066.42 754.991 1059.54 753.416L1059.54 751.467L1108.53 740.158L1097.22 691.172L1098.97 690.319C1103.4 695.806 1110.72 698.6 1118.04 696.909C1128.27 694.548 1134.64 684.346 1132.28 674.122C1129.92 663.897 1119.72 657.522 1109.49 659.883C1102.17 661.574 1096.82 667.293 1095.24 674.165L1093.29 674.167L1081.98 625.182L1033 636.491L1032.15 634.739C1037.63 630.311 1040.43 622.994 1038.73 615.667C1036.37 605.443 1026.17 599.068 1015.95 601.428ZM159.036 886.16C161.572 880.183 166.836 875.46 173.649 873.887C184.95 871.278 196.226 878.324 198.835 889.625C201.444 900.926 194.398 912.202 183.097 914.811C176.284 916.384 169.482 914.445 164.582 910.184L175.081 955.661L220.558 945.162C214.58 942.626 209.856 937.362 208.283 930.548C205.674 919.248 212.72 907.972 224.021 905.363C235.322 902.754 246.598 909.8 249.207 921.1C250.78 927.914 248.841 934.716 244.58 939.616L290.057 929.117L279.558 883.64C277.022 889.617 271.758 894.342 264.945 895.915C253.644 898.524 242.368 891.478 239.759 880.177C237.15 868.876 244.196 857.6 255.497 854.991C262.31 853.418 269.112 855.356 274.011 859.616L263.513 814.141L218.036 824.64C224.014 827.176 228.738 832.44 230.311 839.253C232.92 850.554 225.874 861.83 214.573 864.439C203.272 867.048 191.996 860.002 189.387 848.701C187.814 841.888 189.753 835.086 194.014 830.186L148.537 840.685L159.036 886.16ZM392.885 832.172C395.421 826.195 400.685 821.472 407.498 819.899C418.799 817.29 430.075 824.336 432.684 835.637C435.293 846.937 428.247 858.213 416.946 860.822C410.133 862.395 403.331 860.457 398.431 856.196L408.93 901.673L454.407 891.173C448.429 888.637 443.705 883.374 442.132 876.56C439.523 865.259 446.569 853.983 457.87 851.374C469.17 848.765 480.447 855.811 483.056 867.112C484.629 873.926 482.69 880.728 478.429 885.627L523.906 875.128L513.407 829.652C510.87 835.629 505.607 840.353 498.793 841.926C487.493 844.535 476.217 837.489 473.608 826.189C470.999 814.888 478.045 803.612 489.345 801.003C496.158 799.43 502.96 801.367 507.86 805.627L497.362 760.153L451.885 770.652C457.862 773.188 462.587 778.452 464.16 785.265C466.769 796.566 459.723 807.842 448.422 810.451C437.121 813.06 425.845 806.014 423.236 794.713C421.663 787.899 423.602 781.098 427.862 776.198L382.386 786.697L392.885 832.172ZM626.733 778.183C629.27 772.207 634.534 767.483 641.347 765.911C652.648 763.302 663.924 770.348 666.533 781.648C669.142 792.949 662.096 804.225 650.795 806.834C643.981 808.407 637.18 806.468 632.28 802.208L642.779 847.684L688.256 837.185C682.278 834.649 677.554 829.386 675.981 822.572C673.372 811.271 680.418 799.995 691.719 797.386C703.019 794.777 714.295 801.823 716.904 813.124C718.477 819.938 716.539 826.739 712.278 831.639L757.755 821.14L747.255 775.663C744.719 781.641 739.456 786.365 732.642 787.938C721.341 790.547 710.065 783.501 707.456 772.2C704.847 760.9 711.893 749.624 723.194 747.015C730.007 745.442 736.809 747.379 741.709 751.639L731.21 706.164L685.734 716.664C691.711 719.2 696.435 724.463 698.008 731.277C700.617 742.578 693.571 753.854 682.271 756.463C670.97 759.072 659.694 752.026 657.085 740.725C655.512 733.911 657.451 727.109 661.711 722.21L616.235 732.709L626.733 778.183ZM860.582 724.195C863.119 718.218 868.383 713.495 875.196 711.922C886.497 709.313 897.773 716.359 900.382 727.66C902.991 738.961 895.945 750.237 884.644 752.846C877.83 754.419 871.028 752.48 866.129 748.219L876.628 793.696L922.104 783.197C916.127 780.661 911.403 775.397 909.83 768.584C907.221 757.283 914.267 746.007 925.567 743.398C936.868 740.789 948.144 747.835 950.753 759.136C952.326 765.949 950.387 772.751 946.127 777.651L991.603 767.152L981.104 721.675C978.568 727.653 973.305 732.377 966.491 733.95C955.19 736.559 943.914 729.513 941.305 718.212C938.696 706.911 945.742 695.635 957.043 693.026C963.856 691.454 970.658 693.391 975.558 697.651L965.059 652.176L919.583 662.675C925.56 665.211 930.284 670.475 931.857 677.289C934.466 688.589 927.42 699.865 916.119 702.474C904.819 705.083 893.543 698.037 890.934 686.737C889.361 679.923 891.299 673.121 895.56 668.221L850.083 678.72L860.582 724.195ZM1094.43 670.207C1096.97 664.23 1102.23 659.507 1109.04 657.934C1120.35 655.325 1131.62 662.371 1134.23 673.672C1136.84 684.973 1129.79 696.249 1118.49 698.858C1111.68 700.431 1104.88 698.492 1099.98 694.231L1110.48 739.708L1155.95 729.209C1149.98 726.673 1145.25 721.409 1143.68 714.595C1141.07 703.295 1148.12 692.019 1159.42 689.41C1170.72 686.801 1181.99 693.847 1184.6 705.147C1186.18 711.961 1184.24 718.763 1179.98 723.663L1225.45 713.164L1214.95 667.687C1212.42 673.664 1207.15 678.389 1200.34 679.962C1189.04 682.571 1177.76 675.525 1175.15 664.224C1172.55 652.923 1179.59 641.647 1190.89 639.038C1197.7 637.465 1204.51 639.403 1209.41 643.663L1198.91 598.188L1153.43 608.687C1159.41 611.223 1164.13 616.487 1165.71 623.3C1168.32 634.601 1161.27 645.877 1149.97 648.486C1138.67 651.095 1127.39 644.049 1124.78 632.748C1123.21 625.935 1125.15 619.133 1129.41 614.233L1083.93 624.732L1094.43 670.207ZM170.483 673.463C160.258 675.823 153.883 686.025 156.244 696.25C157.935 703.577 163.654 708.928 170.527 710.503L170.529 712.451L121.543 723.761L132.852 772.746L131.099 773.598C126.671 768.112 119.355 765.318 112.028 767.01C101.803 769.37 95.4285 779.572 97.789 789.797C100.149 800.021 110.352 806.396 120.576 804.036C127.903 802.344 133.254 796.625 134.829 789.752L136.778 789.751L148.087 838.736L197.073 827.427L197.926 829.18C192.439 833.608 189.644 840.924 191.336 848.251C193.697 858.476 203.899 864.851 214.123 862.49C224.348 860.13 230.723 849.928 228.362 839.703C226.671 832.376 220.951 827.025 214.079 825.45L214.077 823.501L263.063 812.192L251.754 763.206L253.506 762.354C257.934 767.84 265.251 770.635 272.578 768.943C282.802 766.583 289.177 756.381 286.817 746.156C284.456 735.932 274.254 729.557 264.03 731.917C256.703 733.609 251.351 739.327 249.777 746.2L247.828 746.201L236.519 697.217L187.533 708.526L186.68 706.773C192.167 702.345 194.961 695.029 193.27 687.702C190.909 677.477 180.707 671.102 170.483 673.463ZM404.331 619.474C394.107 621.835 387.732 632.037 390.092 642.261C391.784 649.588 397.503 654.94 404.376 656.514L404.378 658.463L355.392 669.773L366.701 718.757L364.948 719.61C360.52 714.124 353.203 711.33 345.877 713.021C335.652 715.382 329.277 725.584 331.638 735.808C333.998 746.033 344.2 752.408 354.425 750.047C361.752 748.356 367.103 742.637 368.678 735.764L370.627 735.762L381.936 784.748L430.922 773.439L431.774 775.191C426.288 779.619 423.493 786.936 425.185 794.263C427.545 804.488 437.747 810.863 447.972 808.502C458.196 806.142 464.571 795.939 462.211 785.715C460.519 778.388 454.8 773.037 447.928 771.462L447.926 769.513L496.912 758.204L485.602 709.218L487.355 708.365C491.783 713.852 499.1 716.647 506.427 714.955C516.651 712.595 523.026 702.392 520.666 692.168C518.305 681.944 508.103 675.569 497.878 677.929C490.552 679.621 485.2 685.339 483.625 692.211L481.676 692.213L470.367 643.228L421.382 654.538L420.529 652.785C426.016 648.357 428.81 641.04 427.119 633.713C424.758 623.489 414.556 617.114 404.331 619.474ZM638.18 565.486C627.956 567.847 621.581 578.049 623.941 588.273C625.633 595.6 631.352 600.951 638.224 602.526L638.226 604.475L589.241 615.784L600.55 664.769L598.797 665.622C594.369 660.136 587.052 657.342 579.726 659.033C569.501 661.394 563.126 671.596 565.487 681.82C567.847 692.045 578.049 698.42 588.274 696.059C595.601 694.368 600.952 688.649 602.527 681.776L604.475 681.774L615.785 730.76L664.771 719.451L665.623 721.203C660.137 725.631 657.342 732.948 659.034 740.275C661.394 750.499 671.596 756.874 681.821 754.514C692.045 752.153 698.42 741.951 696.06 731.727C694.368 724.4 688.649 719.048 681.776 717.474L681.775 715.525L730.76 704.216L719.451 655.23L721.204 654.377C725.632 659.864 732.948 662.658 740.275 660.967C750.5 658.606 756.875 648.404 754.514 638.18C752.154 627.955 741.952 621.58 731.727 623.941C724.401 625.632 719.049 631.351 717.474 638.223L715.525 638.225L704.216 589.24L655.23 600.549L654.378 598.797C659.864 594.369 662.659 587.052 660.967 579.725C658.607 569.501 648.405 563.126 638.18 565.486ZM872.029 511.498C861.805 513.858 855.43 524.06 857.79 534.285C859.482 541.612 865.201 546.963 872.073 548.538L872.075 550.487L823.089 561.796L834.398 610.781L832.646 611.634C828.218 606.147 820.901 603.353 813.574 605.045C803.35 607.405 796.975 617.608 799.335 627.832C801.696 638.056 811.898 644.431 822.123 642.071C829.449 640.379 834.801 634.66 836.375 627.788L838.324 627.786L849.634 676.772L898.619 665.462L899.472 667.215C893.985 671.643 891.191 678.96 892.882 686.287C895.243 696.511 905.445 702.886 915.67 700.526C925.894 698.165 932.269 687.963 929.909 677.739C928.217 670.412 922.498 665.06 915.625 663.486L915.623 661.537L964.609 650.227L953.3 601.242L955.053 600.389C959.48 605.876 966.797 608.67 974.124 606.979C984.349 604.618 990.724 594.416 988.363 584.191C986.003 573.967 975.801 567.592 965.576 569.953C958.249 571.644 952.898 577.363 951.323 584.235L949.374 584.237L938.065 535.252L889.079 546.561L888.227 544.809C893.713 540.381 896.508 533.064 894.816 525.737C892.456 515.512 882.254 509.137 872.029 511.498ZM1105.88 457.51C1095.65 459.87 1089.28 470.072 1091.64 480.297C1093.33 487.624 1099.05 492.975 1105.92 494.55L1105.92 496.498L1056.94 507.808L1068.25 556.793L1066.49 557.645C1062.07 552.159 1054.75 549.365 1047.42 551.057C1037.2 553.417 1030.82 563.619 1033.18 573.844C1035.54 584.068 1045.75 590.443 1055.97 588.083C1063.3 586.391 1068.65 580.672 1070.22 573.799L1072.17 573.798L1083.48 622.783L1132.47 611.474L1133.32 613.227C1127.83 617.655 1125.04 624.971 1126.73 632.298C1129.09 642.523 1139.29 648.898 1149.52 646.537C1159.74 644.177 1166.12 633.975 1163.76 623.75C1162.07 616.423 1156.35 611.072 1149.47 609.497L1149.47 607.548L1198.46 596.239L1187.15 547.253L1188.9 546.401C1193.33 551.887 1200.65 554.682 1207.97 552.99C1218.2 550.63 1224.57 540.428 1222.21 530.203C1219.85 519.979 1209.65 513.604 1199.42 515.964C1192.1 517.656 1186.75 523.374 1185.17 530.247L1183.22 530.248L1171.91 481.264L1122.93 492.573L1122.08 490.82C1127.56 486.392 1130.36 479.076 1128.66 471.749C1126.3 461.524 1116.1 455.149 1105.88 457.51ZM15.1172 796.23C17.6537 790.253 22.9179 785.53 29.7309 783.957C41.0317 781.348 52.3077 788.394 54.9167 799.695C57.5257 810.995 50.4796 822.271 39.1789 824.88C32.3653 826.453 25.5635 824.515 20.6636 820.254L31.1627 865.731L76.6394 855.231C70.6619 852.695 65.9377 847.432 64.3646 840.618C61.7556 829.317 68.8017 818.041 80.1024 815.432C91.4032 812.823 102.679 819.869 105.288 831.17C106.861 837.984 104.923 844.786 100.662 849.685L146.138 839.186L135.639 793.71C133.103 799.687 127.84 804.411 121.026 805.984C109.725 808.593 98.4492 801.547 95.8402 790.247C93.2312 778.946 100.277 767.67 111.578 765.061C118.391 763.488 125.193 765.425 130.093 769.685L119.594 724.211L74.1175 734.71C80.095 737.246 84.8192 742.509 86.3923 749.323C89.0013 760.624 81.9552 771.9 70.6545 774.509C59.3538 777.118 48.0777 770.072 45.4687 758.771C43.8957 751.957 45.8344 745.156 50.0951 740.256L4.61851 750.755L15.1172 796.23ZM248.966 742.241C251.503 736.265 256.767 731.541 263.58 729.969C274.88 727.36 286.157 734.406 288.765 745.706C291.374 757.007 284.328 768.283 273.028 770.892C266.214 772.465 259.412 770.526 254.512 766.266L265.012 811.742L310.488 801.243C304.511 798.707 299.786 793.443 298.213 786.63C295.604 775.329 302.651 764.053 313.951 761.444C325.252 758.835 336.528 765.881 339.137 777.182C340.71 783.996 338.771 790.797 334.511 795.697L379.987 785.198L369.488 739.721C366.952 745.699 361.688 750.423 354.875 751.996C343.574 754.605 332.298 747.559 329.689 736.258C327.08 724.958 334.126 713.682 345.427 711.073C352.24 709.5 359.042 711.437 363.942 715.697L353.443 670.222L307.966 680.722C313.944 683.258 318.668 688.521 320.241 695.335C322.85 706.636 315.804 717.912 304.503 720.521C293.203 723.13 281.927 716.084 279.318 704.783C277.745 697.969 279.683 691.167 283.944 686.268L238.467 696.767L248.966 742.241ZM482.815 688.253C485.351 682.276 490.616 677.553 497.429 675.98C508.729 673.371 520.005 680.417 522.614 691.718C525.223 703.019 518.177 714.295 506.877 716.904C500.063 718.477 493.261 716.538 488.361 712.277L498.86 757.754L544.337 747.255C538.359 744.719 533.635 739.455 532.062 732.642C529.453 721.341 536.499 710.065 547.8 707.456C559.101 704.847 570.377 711.893 572.986 723.194C574.559 730.007 572.62 736.809 568.359 741.709L613.836 731.21L603.337 685.733C600.801 691.711 595.537 696.435 588.724 698.008C577.423 700.617 566.147 693.571 563.538 682.27C560.929 670.969 567.975 659.693 579.276 657.084C586.089 655.511 592.891 657.449 597.79 661.709L587.292 616.234L541.815 626.733C547.793 629.269 552.517 634.533 554.09 641.347C556.699 652.647 549.653 663.923 538.352 666.532C527.051 669.141 515.775 662.095 513.166 650.795C511.593 643.981 513.532 637.179 517.793 632.279L472.316 642.778L482.815 688.253ZM716.664 634.265C719.2 628.288 724.464 623.565 731.277 621.992C742.578 619.383 753.854 626.429 756.463 637.73C759.072 649.031 752.026 660.307 740.725 662.916C733.912 664.489 727.11 662.55 722.21 658.289L732.709 703.766L778.186 693.267C772.208 690.731 767.484 685.467 765.911 678.653C763.302 667.353 770.348 656.077 781.649 653.468C792.95 650.859 804.226 657.905 806.835 669.205C808.408 676.019 806.469 682.821 802.208 687.721L847.685 677.222L837.186 631.745C834.65 637.722 829.386 642.447 822.572 644.02C811.272 646.629 799.996 639.583 797.387 628.282C794.778 616.981 801.824 605.705 813.124 603.096C819.937 601.523 826.739 603.461 831.639 607.721L821.141 562.246L775.664 572.745C781.641 575.281 786.366 580.545 787.939 587.358C790.548 598.659 783.502 609.935 772.201 612.544C760.9 615.153 749.624 608.107 747.015 596.806C745.442 589.993 747.381 583.191 751.642 578.291L706.165 588.79L716.664 634.265ZM950.512 580.277C953.049 574.3 958.313 569.577 965.126 568.004C976.427 565.395 987.703 572.441 990.312 583.742C992.921 595.042 985.875 606.318 974.574 608.927C967.761 610.5 960.959 608.562 956.059 604.301L966.558 649.778L1012.03 639.278C1006.06 636.742 1001.33 631.479 999.76 624.665C997.151 613.364 1004.2 602.088 1015.5 599.479C1026.8 596.87 1038.07 603.916 1040.68 615.217C1042.26 622.031 1040.32 628.833 1036.06 633.732L1081.53 623.233L1071.03 577.757C1068.5 583.734 1063.23 588.458 1056.42 590.031C1045.12 592.64 1033.84 585.594 1031.24 574.294C1028.63 562.993 1035.67 551.717 1046.97 549.108C1053.79 547.535 1060.59 549.472 1065.49 553.732L1054.99 508.258L1009.51 518.757C1015.49 521.293 1020.21 526.556 1021.79 533.37C1024.4 544.671 1017.35 555.947 1006.05 558.556C994.749 561.165 983.473 554.119 980.864 542.818C979.291 536.004 981.23 529.203 985.49 524.303L940.014 534.802L950.512 580.277ZM1184.36 526.288C1186.9 520.312 1192.16 515.588 1198.98 514.016C1210.28 511.407 1221.55 518.453 1224.16 529.753C1226.77 541.054 1219.72 552.33 1208.42 554.939C1201.61 556.512 1194.81 554.573 1189.91 550.313L1200.41 595.789L1245.88 585.29C1239.91 582.754 1235.18 577.49 1233.61 570.677C1231 559.376 1238.05 548.1 1249.35 545.491C1260.65 542.882 1271.92 549.928 1274.53 561.229C1276.11 568.043 1274.17 574.844 1269.91 579.744L1315.38 569.245L1304.88 523.768C1302.35 529.746 1297.08 534.47 1290.27 536.043C1278.97 538.652 1267.69 531.606 1265.08 520.305C1262.48 509.005 1269.52 497.729 1280.82 495.12C1287.64 493.547 1294.44 495.484 1299.34 499.744L1288.84 454.269L1243.36 464.769C1249.34 467.305 1254.06 472.568 1255.64 479.382C1258.25 490.683 1251.2 501.959 1239.9 504.568C1228.6 507.177 1217.32 500.131 1214.71 488.83C1213.14 482.016 1215.08 475.214 1219.34 470.315L1173.86 480.814L1184.36 526.288ZM260.413 529.544C250.188 531.905 243.813 542.107 246.174 552.331C247.865 559.658 253.585 565.009 260.457 566.584L260.459 568.533L211.473 579.842L222.782 628.827L221.03 629.68C216.602 624.194 209.285 621.4 201.958 623.091C191.734 625.452 185.359 635.654 187.719 645.878C190.08 656.103 200.282 662.478 210.506 660.117C217.833 658.426 223.185 652.706 224.759 645.834L226.708 645.832L238.017 694.818L287.003 683.509L287.856 685.261C282.369 689.689 279.575 697.006 281.266 704.333C283.627 714.557 293.829 720.932 304.053 718.572C314.278 716.211 320.653 706.009 318.292 695.785C316.601 688.458 310.882 683.106 304.009 681.532L304.007 679.583L352.993 668.274L341.684 619.288L343.436 618.435C347.864 623.922 355.181 626.716 362.508 625.025C372.733 622.664 379.108 612.462 376.747 602.238C374.387 592.013 364.184 585.638 353.96 587.999C346.633 589.69 341.282 595.409 339.707 602.281L337.758 602.283L326.449 553.298L277.463 564.607L276.61 562.855C282.097 558.427 284.892 551.11 283.2 543.783C280.839 533.559 270.637 527.184 260.413 529.544ZM494.262 475.556C484.037 477.916 477.662 488.118 480.023 498.343C481.714 505.67 487.433 511.021 494.306 512.596L494.308 514.545L445.322 525.854L456.631 574.839L454.879 575.692C450.451 570.205 443.134 567.411 435.807 569.103C425.583 571.463 419.208 581.665 421.568 591.89C423.929 602.114 434.131 608.489 444.355 606.129C451.682 604.437 457.033 598.718 458.608 591.846L460.557 591.844L471.866 640.83L520.852 629.52L521.705 631.273C516.218 635.701 513.424 643.018 515.115 650.345C517.476 660.569 527.678 666.944 537.902 664.584C548.127 662.223 554.502 652.021 552.141 641.796C550.45 634.47 544.73 629.118 537.858 627.544L537.856 625.595L586.842 614.285L575.533 565.3L577.285 564.447C581.713 569.934 589.03 572.728 596.357 571.037C606.581 568.676 612.956 558.474 610.596 548.249C608.235 538.025 598.033 531.65 587.809 534.01C580.482 535.702 575.13 541.421 573.556 548.293L571.607 548.295L560.298 499.31L511.312 510.619L510.459 508.866C515.946 504.439 518.74 497.122 517.049 489.795C514.688 479.57 504.486 473.195 494.262 475.556ZM728.111 421.568C717.886 423.928 711.511 434.13 713.872 444.355C715.563 451.682 721.282 457.033 728.155 458.608L728.157 460.556L679.171 471.866L690.48 520.851L688.727 521.703C684.299 516.217 676.983 513.423 669.656 515.115C659.431 517.475 653.056 527.677 655.417 537.902C657.777 548.126 667.98 554.501 678.204 552.141C685.531 550.449 690.882 544.73 692.457 537.857L694.406 537.856L705.715 586.841L754.701 575.532L755.554 577.285C750.067 581.713 747.272 589.029 748.964 596.356C751.324 606.581 761.527 612.956 771.751 610.595C781.975 608.235 788.35 598.033 785.99 587.808C784.298 580.481 778.579 575.13 771.707 573.555L771.705 571.606L820.691 560.297L809.381 511.311L811.134 510.459C815.562 515.945 822.879 518.74 830.206 517.048C840.43 514.688 846.805 504.486 844.445 494.261C842.084 484.037 831.882 477.662 821.658 480.022C814.331 481.714 808.979 487.432 807.404 494.304L805.456 494.306L794.146 445.321L745.161 456.631L744.308 454.878C749.795 450.45 752.589 443.133 750.898 435.807C748.537 425.582 738.335 419.207 728.111 421.568ZM961.959 367.579C951.735 369.94 945.36 380.142 947.72 390.366C949.412 397.693 955.131 403.045 962.004 404.619L962.006 406.568L913.02 417.877L924.329 466.862L922.576 467.715C918.148 462.229 910.831 459.435 903.505 461.126C893.28 463.487 886.905 473.689 889.266 483.913C891.626 494.138 901.828 500.513 912.053 498.152C919.38 496.461 924.731 490.742 926.306 483.869L928.255 483.867L939.564 532.853L988.55 521.544L989.402 523.296C983.916 527.724 981.121 535.041 982.813 542.368C985.173 552.593 995.375 558.968 1005.6 556.607C1015.82 554.247 1022.2 544.044 1019.84 533.82C1018.15 526.493 1012.43 521.142 1005.56 519.567L1005.55 517.618L1054.54 506.309L1043.23 457.323L1044.98 456.47C1049.41 461.957 1056.73 464.752 1064.05 463.06C1074.28 460.7 1080.65 450.497 1078.29 440.273C1075.93 430.048 1065.73 423.673 1055.51 426.034C1048.18 427.725 1042.83 433.444 1041.25 440.316L1039.3 440.318L1028 391.333L979.009 402.643L978.157 400.89C983.644 396.462 986.438 389.145 984.746 381.818C982.386 371.594 972.184 365.219 961.959 367.579ZM105.047 652.311C107.584 646.334 112.848 641.611 119.661 640.038C130.962 637.429 142.238 644.475 144.847 655.776C147.456 667.077 140.41 678.353 129.109 680.962C122.296 682.535 115.494 680.596 110.594 676.335L121.093 721.812L166.57 711.313C160.592 708.777 155.868 703.513 154.295 696.7C151.686 685.399 158.732 674.123 170.033 671.514C181.333 668.905 192.609 675.951 195.218 687.252C196.791 694.065 194.853 700.867 190.592 705.767L236.069 695.268L225.57 649.791C223.033 655.769 217.77 660.493 210.956 662.066C199.656 664.675 188.379 657.629 185.771 646.328C183.162 635.027 190.208 623.751 201.508 621.142C208.321 619.569 215.123 621.507 220.023 625.767L209.524 580.292L164.048 590.791C170.025 593.327 174.75 598.591 176.323 605.405C178.932 616.705 171.885 627.981 160.585 630.59C149.284 633.199 138.008 626.153 135.399 614.852C133.826 608.039 135.765 601.237 140.025 596.337L94.5488 606.836L105.047 652.311ZM338.896 598.323C341.433 592.346 346.697 587.623 353.51 586.05C364.811 583.441 376.087 590.487 378.696 601.788C381.305 613.089 374.259 624.365 362.958 626.974C356.144 628.547 349.343 626.608 344.443 622.347L354.942 667.824L400.418 657.325C394.441 654.788 389.717 649.525 388.144 642.711C385.535 631.411 392.581 620.135 403.882 617.526C415.182 614.917 426.458 621.963 429.067 633.263C430.64 640.077 428.702 646.879 424.441 651.779L469.917 641.28L459.418 595.803C456.882 601.78 451.619 606.505 444.805 608.078C433.504 610.687 422.228 603.641 419.619 592.34C417.01 581.039 424.056 569.763 435.357 567.154C442.17 565.581 448.972 567.519 453.872 571.779L443.373 526.304L397.897 536.803C403.874 539.339 408.598 544.603 410.171 551.416C412.78 562.717 405.734 573.993 394.434 576.602C383.133 579.211 371.857 572.165 369.248 560.864C367.675 554.051 369.613 547.249 373.874 542.349L328.398 552.848L338.896 598.323ZM572.745 544.335C575.282 538.358 580.546 533.635 587.359 532.062C598.66 529.453 609.936 536.499 612.545 547.8C615.154 559.1 608.108 570.376 596.807 572.985C589.993 574.558 583.191 572.62 578.292 568.359L588.791 613.836L634.267 603.336C628.29 600.8 623.566 595.537 621.993 588.723C619.384 577.422 626.43 566.146 637.73 563.537C649.031 560.928 660.307 567.974 662.916 579.275C664.489 586.089 662.55 592.891 658.29 597.79L703.766 587.291L693.267 541.815C690.731 547.792 685.468 552.516 678.654 554.089C667.353 556.698 656.077 549.652 653.468 538.352C650.859 527.051 657.905 515.775 669.206 513.166C676.019 511.593 682.821 513.53 687.721 517.79L677.222 472.316L631.745 482.815C637.723 485.351 642.447 490.614 644.02 497.428C646.629 508.729 639.583 520.005 628.282 522.614C616.982 525.223 605.706 518.177 603.097 506.876C601.524 500.062 603.462 493.261 607.723 488.361L562.246 498.86L572.745 544.335ZM806.594 490.346C809.13 484.37 814.395 479.646 821.208 478.073C832.508 475.465 843.784 482.511 846.393 493.811C849.002 505.112 841.956 516.388 830.656 518.997C823.842 520.57 817.04 518.631 812.14 514.371L822.639 559.847L868.116 549.348C862.139 546.812 857.414 541.548 855.841 534.735C853.232 523.434 860.278 512.158 871.579 509.549C882.88 506.94 894.156 513.986 896.765 525.287C898.338 532.101 896.399 538.902 892.138 543.802L937.615 533.303L927.116 487.826C924.58 493.804 919.316 498.528 912.503 500.101C901.202 502.71 889.926 495.664 887.317 484.363C884.708 473.063 891.754 461.787 903.055 459.178C909.868 457.605 916.67 459.542 921.57 463.802L911.071 418.327L865.594 428.826C871.572 431.363 876.296 436.626 877.869 443.44C880.478 454.741 873.432 466.017 862.131 468.626C850.83 471.235 839.554 464.188 836.945 452.888C835.372 446.074 837.311 439.272 841.572 434.372L796.095 444.872L806.594 490.346ZM1040.44 436.358C1042.98 430.381 1048.24 425.658 1055.06 424.085C1066.36 421.476 1077.63 428.522 1080.24 439.823C1082.85 451.124 1075.81 462.4 1064.5 465.009C1057.69 466.582 1050.89 464.643 1045.99 460.382L1056.49 505.859L1101.96 495.36C1095.99 492.824 1091.26 487.56 1089.69 480.747C1087.08 469.446 1094.13 458.17 1105.43 455.561C1116.73 452.952 1128 459.998 1130.61 471.299C1132.19 478.112 1130.25 484.914 1125.99 489.814L1171.46 479.315L1160.96 433.838C1158.43 439.816 1153.17 444.54 1146.35 446.113C1135.05 448.722 1123.77 441.676 1121.17 430.375C1118.56 419.074 1125.6 407.798 1136.9 405.189C1143.72 403.616 1150.52 405.554 1155.42 409.814L1144.92 364.339L1099.44 374.838C1105.42 377.374 1110.14 382.638 1111.72 389.452C1114.33 400.752 1107.28 412.028 1095.98 414.637C1084.68 417.246 1073.4 410.2 1070.79 398.899C1069.22 392.086 1071.16 385.284 1075.42 380.384L1029.94 390.883L1040.44 436.358ZM116.494 439.614C106.27 441.974 99.8949 452.176 102.255 462.401C103.947 469.728 109.666 475.079 116.539 476.654L116.541 478.603L67.5547 489.912L78.8637 538.897L77.1112 539.749C72.6832 534.263 65.3664 531.469 58.0397 533.161C47.8152 535.521 41.4402 545.723 43.8007 555.948C46.1612 566.172 56.3634 572.547 66.5878 570.187C73.9148 568.495 79.2661 562.776 80.8407 555.904L82.7896 555.902L94.0989 604.888L143.085 593.578L143.937 595.331C138.451 599.759 135.656 607.076 137.348 614.403C139.708 624.627 149.91 631.002 160.135 628.642C170.359 626.281 176.734 616.079 174.374 605.854C172.682 598.527 166.963 593.176 160.091 591.602L160.089 589.653L209.075 578.343L197.765 529.358L199.518 528.505C203.946 533.992 211.263 536.786 218.59 535.095C228.814 532.734 235.189 522.532 232.829 512.307C230.468 502.083 220.266 495.708 210.041 498.068C202.715 499.76 197.363 505.479 195.788 512.351L193.839 512.353L182.53 463.368L133.544 474.677L132.692 472.924C138.179 468.497 140.973 461.18 139.281 453.853C136.921 443.628 126.719 437.253 116.494 439.614ZM350.343 385.626C340.119 387.986 333.744 398.188 336.104 408.413C337.796 415.74 343.515 421.091 350.387 422.665L350.389 424.614L301.403 435.924L312.713 484.909L310.96 485.761C306.532 480.275 299.215 477.481 291.888 479.173C281.664 481.533 275.289 491.735 277.65 501.96C280.01 512.184 290.212 518.559 300.437 516.199C307.764 514.507 313.115 508.788 314.689 501.915L316.638 501.913L327.948 550.899L376.934 539.59L377.786 541.343C372.299 545.771 369.505 553.087 371.197 560.414C373.557 570.639 383.759 577.014 393.984 574.653C404.208 572.293 410.583 562.091 408.223 551.866C406.531 544.539 400.812 539.188 393.939 537.613L393.937 535.664L442.923 524.355L431.614 475.369L433.367 474.517C437.795 480.003 445.111 482.798 452.438 481.106C462.663 478.746 469.038 468.544 466.677 458.319C464.317 448.095 454.115 441.72 443.89 444.08C436.564 445.772 431.212 451.49 429.637 458.362L427.688 458.364L416.379 409.379L367.393 420.689L366.541 418.936C372.027 414.508 374.822 407.191 373.13 399.864C370.77 389.64 360.568 383.265 350.343 385.626ZM584.192 331.637C573.968 333.998 567.593 344.2 569.953 354.424C571.645 361.751 577.364 367.103 584.236 368.677L584.238 370.626L535.252 381.935L546.561 430.92L544.809 431.773C540.381 426.287 533.064 423.493 525.737 425.184C515.513 427.545 509.138 437.747 511.498 447.971C513.859 458.196 524.061 464.571 534.285 462.21C541.612 460.519 546.964 454.8 548.538 447.927L550.487 447.925L561.797 496.911L610.782 485.602L611.635 487.354C606.148 491.782 603.354 499.099 605.045 506.426C607.406 516.651 617.608 523.026 627.832 520.665C638.057 518.305 644.432 508.102 642.071 497.878C640.38 490.551 634.661 485.2 627.788 483.625L627.786 481.676L676.772 470.367L665.463 421.381L667.215 420.528C671.643 426.015 678.96 428.81 686.287 427.118C696.512 424.758 702.887 414.555 700.526 404.331C698.166 394.106 687.964 387.731 677.739 390.092C670.412 391.783 665.061 397.502 663.486 404.374L661.537 404.376L650.228 355.391L601.242 366.7L600.389 364.948C605.876 360.52 608.671 353.203 606.979 345.876C604.619 335.652 594.416 329.277 584.192 331.637ZM818.041 277.649C807.816 280.01 801.441 290.212 803.802 300.436C805.493 307.763 811.213 313.114 818.085 314.689L818.087 316.638L769.101 327.947L780.41 376.932L778.658 377.785C774.23 372.298 766.913 369.505 759.586 371.196C749.362 373.557 742.987 383.759 745.347 393.983C747.708 404.208 757.91 410.583 768.134 408.222C775.461 406.531 780.813 400.811 782.387 393.939L784.336 393.937L795.645 442.923L844.631 431.614L845.484 433.366C839.997 437.794 837.203 445.111 838.894 452.438C841.255 462.662 851.457 469.037 861.681 466.677C871.906 464.316 878.281 454.114 875.92 443.89C874.229 436.563 868.51 431.211 861.637 429.637L861.635 427.688L910.621 416.379L899.312 367.393L901.064 366.54C905.492 372.027 912.809 374.821 920.136 373.13C930.36 370.769 936.735 360.567 934.375 350.343C932.014 340.118 921.812 333.743 911.588 336.104C904.261 337.795 898.91 343.514 897.335 350.386L895.386 350.388L884.077 301.403L835.091 312.712L834.238 310.96C839.725 306.532 842.519 299.215 840.828 291.888C838.467 281.664 828.265 275.289 818.041 277.649ZM1051.89 223.661C1041.67 226.021 1035.29 236.223 1037.65 246.448C1039.34 253.775 1045.06 259.126 1051.93 260.701L1051.94 262.65L1002.95 273.959L1014.26 322.944L1012.51 323.796C1008.08 318.31 1000.76 315.516 993.435 317.208C983.21 319.568 976.835 329.77 979.196 339.995C981.556 350.219 991.759 356.594 1001.98 354.234C1009.31 352.542 1014.66 346.823 1016.24 339.951L1018.18 339.949L1029.49 388.935L1078.48 377.625L1079.33 379.378C1073.85 383.806 1071.05 391.123 1072.74 398.45C1075.1 408.674 1085.31 415.049 1095.53 412.689C1105.75 410.328 1112.13 400.126 1109.77 389.901C1108.08 382.574 1102.36 377.223 1095.49 375.649L1095.48 373.7L1144.47 362.39L1133.16 313.404L1134.91 312.552C1139.34 318.039 1146.66 320.833 1153.98 319.142C1164.21 316.781 1170.58 306.579 1168.22 296.354C1165.86 286.13 1155.66 279.755 1145.44 282.115C1138.11 283.807 1132.76 289.526 1131.18 296.398L1129.23 296.4L1117.93 247.415L1068.94 258.724L1068.09 256.971C1073.57 252.544 1076.37 245.227 1074.68 237.9C1072.32 227.675 1062.11 221.3 1051.89 223.661ZM-38.8711 562.381C-36.3345 556.404 -31.0703 551.681 -24.2573 550.108C-12.9566 547.499 -1.68055 554.545 0.928432 565.846C3.53741 577.146 -3.50864 588.423 -14.8094 591.032C-21.623 592.605 -28.4248 590.666 -33.3246 586.405L-22.8255 631.882L22.6511 621.383C16.6736 618.846 11.9494 613.583 10.3764 606.769C7.7674 595.469 14.8135 584.193 26.1142 581.584C37.4149 578.975 48.6909 586.021 51.2999 597.321C52.873 604.135 50.9343 610.937 46.6735 615.837L92.1501 605.338L81.651 559.861C79.1149 565.838 73.8513 570.563 67.0377 572.136C55.737 574.745 44.461 567.699 41.852 556.398C39.243 545.097 46.289 533.821 57.5898 531.212C64.4028 529.639 71.2047 531.577 76.1046 535.837L65.6059 490.362L20.1293 500.861C26.1068 503.397 30.831 508.661 32.404 515.474C35.013 526.775 27.967 538.051 16.6662 540.66C5.36551 543.269 -5.91053 536.223 -8.51951 524.922C-10.0926 518.109 -8.15386 511.307 -3.89311 506.407L-49.3697 516.906L-38.8711 562.381ZM194.978 508.393C197.514 502.416 202.778 497.693 209.592 496.12C220.892 493.511 232.168 500.557 234.777 511.858C237.386 523.158 230.34 534.434 219.039 537.043C212.226 538.616 205.424 536.678 200.524 532.417L211.023 577.893L256.5 567.394C250.522 564.858 245.798 559.595 244.225 552.781C241.616 541.48 248.662 530.204 259.963 527.595C271.264 524.986 282.54 532.032 285.149 543.333C286.722 550.147 284.783 556.948 280.522 561.848L325.999 551.349L315.5 505.873C312.964 511.85 307.7 516.574 300.887 518.147C289.586 520.756 278.31 513.71 275.701 502.41C273.092 491.109 280.138 479.833 291.439 477.224C298.252 475.651 305.054 477.588 309.953 481.848L299.455 436.374L253.978 446.873C259.956 449.409 264.68 454.672 266.253 461.486C268.862 472.787 261.816 484.063 250.515 486.672C239.214 489.281 227.938 482.235 225.329 470.934C223.756 464.12 225.695 457.319 229.956 452.419L184.479 462.918L194.978 508.393ZM428.827 454.404C431.363 448.428 436.627 443.704 443.44 442.131C454.741 439.522 466.017 446.569 468.626 457.869C471.235 469.17 464.189 480.446 452.888 483.055C446.075 484.628 439.273 482.689 434.373 478.429L444.872 523.905L490.349 513.406C484.371 510.87 479.647 505.606 478.074 498.793C475.465 487.492 482.511 476.216 493.812 473.607C505.113 470.998 516.389 478.044 518.998 489.345C520.571 496.158 518.632 502.96 514.371 507.86L559.848 497.361L549.349 451.884C546.812 457.862 541.549 462.586 534.735 464.159C523.435 466.768 512.159 459.722 509.55 448.421C506.941 437.121 513.987 425.845 525.287 423.236C532.1 421.663 538.902 423.6 543.802 427.86L533.304 382.385L487.827 392.884C493.804 395.421 498.529 400.684 500.102 407.498C502.711 418.798 495.665 430.075 484.364 432.684C473.063 435.292 461.787 428.246 459.178 416.946C457.605 410.132 459.544 403.33 463.805 398.43L418.328 408.93L428.827 454.404ZM662.675 400.416C665.212 394.439 670.476 389.716 677.289 388.143C688.59 385.534 699.866 392.58 702.475 403.881C705.084 415.182 698.038 426.458 686.737 429.067C679.923 430.64 673.122 428.701 668.222 424.44L678.721 469.917L724.198 459.418C718.22 456.882 713.496 451.618 711.923 444.805C709.314 433.504 716.36 422.228 727.661 419.619C738.961 417.01 750.237 424.056 752.846 435.357C754.419 442.17 752.481 448.972 748.22 453.872L793.697 443.373L783.197 397.896C780.661 403.874 775.398 408.598 768.584 410.171C757.283 412.78 746.007 405.734 743.398 394.433C740.789 383.132 747.835 371.856 759.136 369.247C765.949 367.674 772.751 369.612 777.651 373.872L767.152 328.397L721.676 338.896C727.653 341.432 732.377 346.696 733.95 353.51C736.559 364.81 729.513 376.086 718.213 378.695C706.912 381.304 695.636 374.258 693.027 362.957C691.454 356.144 693.393 349.342 697.653 344.442L652.177 354.941L662.675 400.416ZM896.524 346.428C899.061 340.451 904.325 335.728 911.138 334.155C922.439 331.546 933.715 338.592 936.324 349.893C938.933 361.193 931.887 372.47 920.586 375.079C913.772 376.652 906.971 374.713 902.071 370.452L912.57 415.929L958.046 405.43C952.069 402.893 947.345 397.63 945.772 390.816C943.163 379.516 950.209 368.24 961.509 365.631C972.81 363.022 984.086 370.068 986.695 381.368C988.268 388.182 986.33 394.984 982.069 399.884L1027.55 389.385L1017.05 343.908C1014.51 349.885 1009.25 354.61 1002.43 356.183C991.132 358.792 979.856 351.746 977.247 340.445C974.638 329.144 981.684 317.868 992.985 315.259C999.798 313.686 1006.6 315.624 1011.5 319.884L1001 274.409L955.525 284.908C961.502 287.444 966.226 292.708 967.799 299.521C970.408 310.822 963.362 322.098 952.061 324.707C940.761 327.316 929.485 320.27 926.876 308.969C925.303 302.156 927.241 295.354 931.502 290.454L886.026 300.953L896.524 346.428ZM1130.37 292.44C1132.91 286.463 1138.17 281.74 1144.99 280.167C1156.29 277.558 1167.56 284.604 1170.17 295.905C1172.78 307.205 1165.74 318.481 1154.43 321.09C1147.62 322.663 1140.82 320.725 1135.92 316.464L1146.42 361.94L1191.9 351.441C1185.92 348.905 1181.19 343.642 1179.62 336.828C1177.01 325.527 1184.06 314.251 1195.36 311.642C1206.66 309.033 1217.94 316.079 1220.54 327.38C1222.12 334.194 1220.18 340.995 1215.92 345.895L1261.39 335.396L1250.9 289.92C1248.36 295.897 1243.1 300.621 1236.28 302.194C1224.98 304.803 1213.71 297.757 1211.1 286.457C1208.49 275.156 1215.53 263.88 1226.83 261.271C1233.65 259.698 1240.45 261.635 1245.35 265.895L1234.85 220.421L1189.37 230.92C1195.35 233.456 1200.08 238.719 1201.65 245.533C1204.26 256.834 1197.21 268.11 1185.91 270.719C1174.61 273.328 1163.33 266.282 1160.72 254.981C1159.15 248.167 1161.09 241.366 1165.35 236.466L1119.87 246.965L1130.37 292.44ZM206.425 295.695C196.2 298.056 189.825 308.258 192.186 318.482C193.877 325.809 199.596 331.161 206.469 332.735L206.471 334.684L157.485 345.993L168.794 394.978L167.041 395.831C162.613 390.345 155.297 387.551 147.97 389.242C137.745 391.603 131.37 401.805 133.731 412.029C136.092 422.254 146.294 428.629 156.518 426.268C163.845 424.577 169.196 418.858 170.771 411.985L172.72 411.983L184.029 460.969L233.015 449.66L233.868 451.412C228.381 455.84 225.586 463.157 227.278 470.484C229.639 480.709 239.841 487.084 250.065 484.723C260.29 482.363 266.665 472.16 264.304 461.936C262.613 454.609 256.893 449.258 250.021 447.683L250.019 445.734L299.005 434.425L287.696 385.439L289.448 384.586C293.876 390.073 301.193 392.868 308.52 391.176C318.744 388.815 325.119 378.613 322.759 368.389C320.398 358.164 310.196 351.789 299.972 354.15C292.645 355.841 287.293 361.56 285.719 368.432L283.77 368.434L272.461 319.449L223.475 330.758L222.622 329.006C228.109 324.578 230.903 317.261 229.212 309.934C226.851 299.71 216.649 293.335 206.425 295.695ZM440.273 241.707C430.049 244.067 423.674 254.27 426.034 264.494C427.726 271.821 433.445 277.172 440.318 278.747L440.32 280.696L391.334 292.005L402.643 340.99L400.89 341.843C396.462 336.356 389.145 333.563 381.819 335.254C371.594 337.615 365.219 347.817 367.58 358.041C369.94 368.266 380.142 374.641 390.367 372.28C397.694 370.589 403.045 364.869 404.62 357.997L406.569 357.995L417.878 406.981L466.864 395.672L467.716 397.424C462.23 401.852 459.435 409.169 461.127 416.496C463.487 426.72 473.689 433.095 483.914 430.735C494.138 428.374 500.513 418.172 498.153 407.948C496.461 400.621 490.742 395.269 483.87 393.695L483.868 391.746L532.854 380.437L521.544 331.451L523.297 330.598C527.725 336.085 535.042 338.879 542.369 337.188C552.593 334.827 558.968 324.625 556.608 314.401C554.247 304.176 544.045 297.801 533.821 300.162C526.494 301.853 521.142 307.572 519.567 314.444L517.618 314.446L506.309 265.461L457.324 276.77L456.471 275.018C461.958 270.59 464.752 263.273 463.061 255.946C460.7 245.721 450.498 239.346 440.273 241.707ZM674.122 187.719C663.898 190.079 657.523 200.281 659.883 210.506C661.575 217.833 667.294 223.184 674.167 224.759L674.168 226.708L625.183 238.017L636.492 287.002L634.739 287.854C630.311 282.368 622.994 279.574 615.668 281.266C605.443 283.626 599.068 293.828 601.429 304.053C603.789 314.277 613.991 320.652 624.216 318.292C631.543 316.6 636.894 310.881 638.469 304.009L640.418 304.007L651.727 352.993L700.713 341.683L701.565 343.436C696.079 347.864 693.284 355.181 694.976 362.508C697.336 372.732 707.538 379.107 717.763 376.747C727.987 374.386 734.362 364.184 732.002 353.959C730.31 346.632 724.591 341.281 717.719 339.707L717.717 337.758L766.702 326.448L755.393 277.462L757.146 276.61C761.574 282.097 768.89 284.891 776.217 283.199C786.442 280.839 792.817 270.637 790.456 260.412C788.096 250.188 777.894 243.813 767.669 246.173C760.343 247.865 754.991 253.584 753.416 260.456L751.467 260.458L740.158 211.473L691.172 222.782L690.32 221.029C695.806 216.601 698.601 209.285 696.909 201.958C694.549 191.733 684.347 185.358 674.122 187.719ZM907.971 133.73C897.747 136.091 891.372 146.293 893.732 156.518C895.424 163.845 901.143 169.196 908.015 170.77L908.017 172.719L859.031 184.029L870.34 233.014L868.588 233.866C864.16 228.38 856.843 225.586 849.516 227.278C839.292 229.638 832.917 239.84 835.277 250.065C837.638 260.289 847.84 266.664 858.065 264.304C865.392 262.612 870.743 256.893 872.317 250.02L874.266 250.018L885.576 299.004L934.561 287.695L935.414 289.448C929.927 293.876 927.133 301.192 928.824 308.519C931.185 318.744 941.387 325.119 951.612 322.758C961.836 320.398 968.211 310.196 965.851 299.971C964.159 292.644 958.44 287.293 951.567 285.718L951.565 283.769L1000.55 272.46L989.242 223.474L990.995 222.622C995.422 228.108 1002.74 230.903 1010.07 229.211C1020.29 226.851 1026.67 216.649 1024.31 206.424C1021.94 196.2 1011.74 189.825 1001.52 192.185C994.191 193.877 988.84 199.595 987.265 206.467L985.316 206.469L974.007 157.484L925.021 168.794L924.169 167.041C929.655 162.613 932.45 155.296 930.758 147.969C928.398 137.745 918.196 131.37 907.971 133.73ZM51.0592 418.462C53.5957 412.485 58.86 407.762 65.673 406.189C76.9737 403.58 88.2497 410.627 90.8587 421.927C93.4677 433.228 86.4216 444.504 75.1209 447.113C68.3073 448.686 61.5055 446.747 56.6057 442.487L67.1048 487.963L112.581 477.464C106.604 474.928 101.88 469.664 100.307 462.851C97.6977 451.55 104.744 440.274 116.044 437.665C127.345 435.056 138.621 442.102 141.23 453.403C142.803 460.216 140.865 467.018 136.604 471.918L182.08 461.419L171.581 415.942C169.045 421.92 163.782 426.644 156.968 428.217C145.667 430.826 134.391 423.78 131.782 412.479C129.173 401.179 136.219 389.903 147.52 387.294C154.333 385.721 161.135 387.658 166.035 391.918L155.536 346.443L110.06 356.942C116.037 359.479 120.761 364.742 122.334 371.556C124.943 382.856 117.897 394.133 106.597 396.741C95.2958 399.35 84.0197 392.304 81.4108 381.004C79.8377 374.19 81.7764 367.388 86.0372 362.488L40.5605 372.988L51.0592 418.462ZM284.908 364.474C287.445 358.497 292.709 353.774 299.522 352.201C310.823 349.592 322.099 356.638 324.708 367.939C327.317 379.24 320.27 390.516 308.97 393.125C302.156 394.698 295.354 392.759 290.454 388.498L300.954 433.975L346.43 423.476C340.453 420.94 335.729 415.676 334.155 408.863C331.546 397.562 338.593 386.286 349.893 383.677C361.194 381.068 372.47 388.114 375.079 399.415C376.652 406.228 374.713 413.03 370.453 417.93L415.929 407.431L405.43 361.954C402.894 367.932 397.63 372.656 390.817 374.229C379.516 376.838 368.24 369.792 365.631 358.491C363.022 347.19 370.068 335.914 381.369 333.305C388.182 331.732 394.984 333.67 399.884 337.93L389.385 292.455L343.908 302.954C349.886 305.49 354.61 310.754 356.183 317.567C358.792 328.868 351.746 340.144 340.445 342.753C329.145 345.362 317.869 338.316 315.26 327.015C313.687 320.202 315.625 313.4 319.886 308.5L274.409 318.999L284.908 364.474ZM518.757 310.486C521.293 304.509 526.558 299.786 533.371 298.213C544.671 295.604 555.947 302.65 558.556 313.951C561.165 325.251 554.119 336.527 542.819 339.136C536.005 340.71 529.203 338.771 524.303 334.51L534.802 379.987L580.279 369.488C574.302 366.951 569.577 361.688 568.004 354.874C565.395 343.574 572.441 332.298 583.742 329.689C595.043 327.08 606.319 334.126 608.928 345.426C610.501 352.24 608.562 359.042 604.301 363.942L649.778 353.442L639.279 307.966C636.743 313.943 631.479 318.668 624.666 320.241C613.365 322.85 602.089 315.804 599.48 304.503C596.871 293.202 603.917 281.926 615.218 279.317C622.031 277.744 628.833 279.682 633.733 283.942L623.234 238.467L577.757 248.966C583.735 251.502 588.459 256.766 590.032 263.579C592.641 274.88 585.595 286.156 574.294 288.765C562.993 291.374 551.717 284.328 549.108 273.027C547.535 266.214 549.474 259.412 553.735 254.512L508.258 265.011L518.757 310.486ZM752.606 256.498C755.142 250.521 760.406 245.798 767.219 244.225C778.52 241.616 789.796 248.662 792.405 259.962C795.014 271.263 787.968 282.539 776.667 285.148C769.854 286.721 763.052 284.783 758.152 280.522L768.651 325.998L814.128 315.499C808.15 312.963 803.426 307.7 801.853 300.886C799.244 289.585 806.29 278.309 817.591 275.7C828.892 273.091 840.168 280.137 842.777 291.438C844.35 298.252 842.411 305.053 838.15 309.953L883.627 299.454L873.128 253.978C870.592 259.955 865.328 264.679 858.514 266.252C847.214 268.861 835.938 261.815 833.329 250.515C830.72 239.214 837.766 227.938 849.067 225.329C855.88 223.756 862.681 225.693 867.581 229.953L857.083 184.479L811.606 194.978C817.584 197.514 822.308 202.777 823.881 209.591C826.49 220.892 819.444 232.168 808.143 234.777C796.842 237.386 785.566 230.34 782.957 219.039C781.384 212.225 783.323 205.424 787.584 200.524L742.107 211.023L752.606 256.498ZM986.454 202.509C988.991 196.532 994.255 191.809 1001.07 190.236C1012.37 187.627 1023.64 194.673 1026.25 205.974C1028.86 217.275 1021.82 228.551 1010.52 231.16C1003.7 232.733 996.901 230.794 992.001 226.534L1002.5 272.01L1047.98 261.511C1042 258.975 1037.27 253.711 1035.7 246.898C1033.09 235.597 1040.14 224.321 1051.44 221.712C1062.74 219.103 1074.02 226.149 1076.63 237.45C1078.2 244.263 1076.26 251.065 1072 255.965L1117.48 245.466L1106.98 199.989C1104.44 205.967 1099.18 210.691 1092.36 212.264C1081.06 214.873 1069.79 207.827 1067.18 196.526C1064.57 185.226 1071.61 173.95 1082.92 171.341C1089.73 169.768 1096.53 171.705 1101.43 175.965L1090.93 130.49L1045.45 140.989C1051.43 143.526 1056.16 148.789 1057.73 155.603C1060.34 166.903 1053.29 178.18 1041.99 180.788C1030.69 183.397 1019.42 176.351 1016.81 165.051C1015.23 158.237 1017.17 151.435 1021.43 146.535L975.956 157.035L986.454 202.509Z" fill="url(#paint0_linear_404_3755)"/>
<path d="M637.955 564.512C648.718 562.027 659.457 568.737 661.941 579.5C663.722 587.214 660.779 594.916 655.005 599.575L704.965 588.041L716.499 638C718.156 630.769 723.788 624.747 731.502 622.966C742.265 620.482 753.004 627.192 755.489 637.955C757.973 648.717 751.263 659.456 740.5 661.941C732.786 663.722 725.084 660.778 720.425 655.005L731.96 704.965L681.999 716.499C689.231 718.156 695.253 723.787 697.034 731.502C699.519 742.264 692.808 753.003 682.045 755.488C671.283 757.973 660.544 751.262 658.059 740.5C656.278 732.785 659.222 725.084 664.995 720.425L615.035 731.959L603.501 681.999C601.844 689.23 596.213 695.253 588.498 697.034C577.736 699.518 566.997 692.808 564.512 682.045C562.027 671.283 568.738 660.543 579.5 658.059C587.214 656.278 594.916 659.221 599.575 664.994L588.041 615.035L638.001 603.501C630.77 601.844 624.748 596.212 622.967 588.498C620.482 577.736 627.192 566.996 637.955 564.512Z" stroke="white" stroke-width="6" stroke-linejoin="round"/>
<rect width="1320" height="1320" fill="url(#paint1_radial_404_3755)"/>
</g>
<defs>
<linearGradient id="paint0_linear_404_3755" x1="439.363" y1="124.405" x2="777.326" y2="1314.89" gradientUnits="userSpaceOnUse">
<stop stop-opacity="0"/>
<stop offset="0.408542" stop-color="white"/>
<stop offset="0.503878" stop-color="#D6D6D6" stop-opacity="0.838811"/>
<stop offset="1" stop-opacity="0"/>
</linearGradient>
<radialGradient id="paint1_radial_404_3755" cx="0" cy="0" r="1" gradientUnits="userSpaceOnUse" gradientTransform="translate(660 660) rotate(90) scale(660)">
<stop stop-opacity="0"/>
<stop offset="1"/>
</radialGradient>
<clipPath id="clip0_404_3755">
<rect width="1320" height="1320" fill="white"/>
</clipPath>
</defs>
</svg>
