<svg width="1320" height="1320" viewBox="0 0 1320 1320" fill="none" xmlns="http://www.w3.org/2000/svg">
<path d="M637.955 564.512C648.718 562.027 659.457 568.737 661.941 579.5C663.722 587.214 660.779 594.916 655.005 599.575L704.965 588.041L716.499 638C718.156 630.769 723.788 624.747 731.502 622.966C742.265 620.482 753.004 627.192 755.489 637.955C757.973 648.717 751.263 659.456 740.5 661.941C732.786 663.722 725.084 660.778 720.425 655.005L731.96 704.965L681.999 716.499C689.231 718.156 695.253 723.787 697.034 731.502C699.519 742.264 692.808 753.003 682.045 755.488C671.283 757.973 660.544 751.262 658.059 740.5C656.278 732.785 659.222 725.084 664.995 720.425L615.035 731.959L603.501 681.999C601.844 689.23 596.213 695.253 588.498 697.034C577.736 699.518 566.997 692.808 564.512 682.045C562.027 671.283 568.738 660.543 579.5 658.059C587.214 656.278 594.916 659.221 599.575 664.994L588.041 615.035L638.001 603.501C630.77 601.844 624.748 596.212 622.967 588.498C620.482 577.736 627.192 566.996 637.955 564.512Z" fill="white"/>
</svg>
