<svg xmlns="http://www.w3.org/2000/svg" fill="none" viewBox="0 0 440 733"><path fill="#fff" d="M0 .2h440v732.3H0z"/><path fill="#D9D9D9" d="M139 35.2a19 19 0 0 1 19-19h124a19 19 0 0 1 0 38H158a19 19 0 0 1-19-19Z"/><g filter="url(#a)"><g clip-path="url(#b)"><rect width="408" height="485.3" x="16" y="70.2" fill="#fff" rx="16"/><path fill="#424242" d="M16 70.2h408v100.7H16z"/><path fill="#fff" d="M95.1 143.8a8.1 8.1 0 0 1-3 6l-2-1.2c.6-1 1-1.7 1.2-2.5.3-.6.4-1.4.4-2v-3h3.4v2.7Zm-34.7-5c0 2 .9 3.1 2.6 3.1 1.9 0 3.1-.6 3.8-2v-12h3.8v16.8H67l-.1-1.6a5.9 5.9 0 0 1-4.8 2c-1.8 0-3.2-.6-4.1-1.7-1-1-1.4-2.6-1.4-4.6v-11h3.8v11Zm21-11.3c2.3 0 4.1.7 5.4 2.2a9.3 9.3 0 0 1 1.9 6.2v1.6h-11c0 1.4.5 2.5 1.3 3.3.8.8 1.9 1.2 3 1.2a5 5 0 0 0 4.3-2.1l2 2c-.6 1-1.5 1.7-2.6 2.3-1.2.6-2.4.8-3.8.8a8 8 0 0 1-5.9-2.2 8.3 8.3 0 0 1-2.2-6v-.6c0-1.6.3-3.2 1-4.5a7.3 7.3 0 0 1 6.7-4.2Zm53.1 0c2.3 0 4.1.7 5.4 2.2a9.3 9.3 0 0 1 1.8 6.2v1.6h-11a5 5 0 0 0 1.4 3.3 4 4 0 0 0 3 1.2c1.8 0 3.2-.7 4.3-2.1l2 2c-.6 1-1.5 1.7-2.6 2.3-1.2.6-2.4.8-3.8.8a8 8 0 0 1-5.9-2.2 8.3 8.3 0 0 1-2.2-6v-.6c0-1.6.3-3.2 1-4.5a7.3 7.3 0 0 1 6.7-4.2Zm17.2 0c2 0 3.6.6 4.9 1.8 1.3 1.1 2 2.7 2 4.6H155c0-1-.4-1.8-1-2.4-.6-.6-1.4-1-2.3-1-1.3 0-2.2.5-2.9 1.4-.7.9-1 2.2-1 4v.7a7 7 0 0 0 1 4c.6 1 1.6 1.4 2.9 1.4.9 0 1.7-.3 2.3-.8.6-.6 1-1.3 1-2h3.6c0 1-.4 2-1 2.9a7.5 7.5 0 0 1-6 3 7 7 0 0 1-5.5-2.4 9.1 9.1 0 0 1-2.1-6.3v-.4a9 9 0 0 1 2-6.2 7.1 7.1 0 0 1 5.7-2.3Zm24.9-5.8c2.1 0 3.8.5 5 1.7a6 6 0 0 1 2 4.6 6 6 0 0 1-3.2 5c1.1.6 2 1.3 2.6 2.3.7 1 1 2 1 3.2a6 6 0 0 1-2 4.8 8 8 0 0 1-5.4 1.7 8 8 0 0 1-5.5-1.7 6 6 0 0 1-2-4.8c0-1.2.3-2.3 1-3.3.6-1 1.5-1.7 2.7-2.2a5.4 5.4 0 0 1-3.2-5 6 6 0 0 1 1.9-4.6 7 7 0 0 1 5-1.7ZM55 125.2h-7v19.5h-4v-19.5h-7V122h18v3.2Zm58.7-3.2c2 0 3.8.4 5.3 1.3 1.6 1 2.8 2.2 3.7 3.8.8 1.7 1.3 3.6 1.3 5.7v1.1c0 2.2-.5 4-1.3 5.7a9 9 0 0 1-3.7 3.8 11 11 0 0 1-5.5 1.3H107V122h6.7Zm62.8 12.6c-1 0-2 .3-2.6 1-.7.7-1 1.6-1 2.7 0 1.2.3 2 1 2.7.6.7 1.5 1 2.7 1 1.1 0 2-.3 2.7-1 .6-.6 1-1.5 1-2.7 0-1-.4-2-1.1-2.7-.7-.7-1.5-1-2.7-1Zm-65.6 7h2.6c2 0 3.7-.7 4.8-2a8.5 8.5 0 0 0 1.7-5.6v-1.2c0-2.5-.6-4.4-1.6-5.7a5.9 5.9 0 0 0-4.7-2h-2.8v16.5Zm-29.5-11c-1 0-1.9.3-2.5 1-.6.8-1 1.8-1.2 3h7.2v-.2c0-1.3-.4-2.2-1-2.9-.6-.6-1.4-1-2.5-1Zm53.1 0c-1 0-1.9.3-2.5 1-.7.8-1 1.8-1.2 3h7.2v-.2c0-1.3-.4-2.2-1-2.9-.6-.6-1.4-1-2.5-1Zm42-5.9a3 3 0 0 0-2.2 1c-.6.5-.9 1.4-.9 2.4s.3 1.9.9 2.5a3 3 0 0 0 2.3 1 3 3 0 0 0 2.3-1c.5-.6.8-1.4.8-2.5 0-1-.3-1.8-.8-2.4a3 3 0 0 0-2.3-1ZM49.9 91.2c1.2 0 2 .4 2.7 1.2.5.8.8 2 .9 3.6v1.9c0 1.7-.3 3-1 3.7-.5.9-1.4 1.3-2.6 1.3-1.2 0-2.1-.4-2.7-1.2-.6-.8-.9-2-1-3.6v-2c0-1.6.4-2.9 1-3.7.5-.8 1.4-1.2 2.7-1.2Zm18 0c1.2 0 2 .4 2.6 1.2.6.8 1 2 1 3.6v1.9c0 1.7-.4 3-1 3.7-.5.9-1.4 1.3-2.7 1.3-1.2 0-2-.4-2.6-1.2a6 6 0 0 1-1-3.6v-2c0-1.6.3-2.9 1-3.7.5-.8 1.4-1.2 2.6-1.2Zm-27 0c1 0 1.8.3 2.5.8.6.6.9 1.3.9 2.2 0 1.2-.7 2.5-2.2 4l-3 3.3h5.7v1.2h-7.5v-1l4-4.4c.6-.6 1-1.2 1.2-1.6.2-.4.3-.8.3-1.3 0-.6-.2-1-.5-1.4a2 2 0 0 0-1.5-.6c-.7 0-1.2.2-1.6.6-.4.4-.6 1-.6 1.7H37c0-1 .4-1.9 1-2.5.7-.7 1.6-1 2.7-1Zm18 0c1 0 1.8.3 2.4.8a3 3 0 0 1 1 2.2c0 1.2-.8 2.5-2.2 4l-3 3.3h5.7v1.2h-7.5v-1l4-4.4 1.2-1.6c.2-.4.3-.8.3-1.3 0-.6-.2-1-.6-1.4-.3-.4-.8-.6-1.4-.6-.7 0-1.3.2-1.7.6-.4.4-.6 1-.6 1.7H55c0-1 .3-1.9 1-2.5.7-.7 1.6-1 2.7-1Zm-9 1.2a2 2 0 0 0-1.7.8c-.3.6-.5 1.4-.5 2.6V98a5 5 0 0 0 .6 2.7c.3.6.9.9 1.6.9a2 2 0 0 0 1.6-.8c.3-.6.5-1.4.5-2.6v-2.4c0-1.2-.2-2.1-.5-2.7-.3-.5-.9-.8-1.6-.8Zm18 0a2 2 0 0 0-1.7.8c-.3.6-.5 1.4-.5 2.6V98c0 1.2.2 2.1.5 2.7.4.6 1 .9 1.7.9s1.2-.3 1.5-.8c.4-.6.6-1.4.6-2.6v-2.4c0-1.2-.2-2.1-.5-2.7-.4-.5-1-.8-1.7-.8Z"/><path fill="#757575" d="m78.3 195.5-.1-.7-.4-.5a3 3 0 0 0-.7-.4 10 10 0 0 0-1.3-.5l-1.5-.5-1.2-.7a2.7 2.7 0 0 1-1-2.2 2.8 2.8 0 0 1 1.1-2.3 4 4 0 0 1 1.3-.6c.5-.2 1-.2 1.6-.2.9 0 1.6.1 2.2.4.6.3 1.1.8 1.4 1.3.4.5.5 1 .5 1.7h-2c0-.4 0-.7-.2-1-.1-.3-.4-.5-.7-.7l-1.2-.2c-.5 0-.8 0-1.1.2-.4.1-.6.3-.7.6-.2.2-.3.5-.3.8 0 .2 0 .4.2.6l.4.5.8.4 1 .3c.7.2 1.3.4 1.7.7.5.2.9.4 1.2.7a2.8 2.8 0 0 1 1 2.2c0 .5-.1 1-.3 1.3-.2.4-.5.7-.9 1a4 4 0 0 1-1.2.6 6 6 0 0 1-4.8-.6 4 4 0 0 1-1-1.2c-.2-.4-.4-1-.4-1.6h2c0 .4 0 .7.2 1 .1.3.3.5.5.6l.8.4a4 4 0 0 0 2.1 0c.4-.2.6-.4.7-.6.2-.3.3-.5.3-.8ZM119 187h1.7l3.3 8.8 3.3-8.8h1.7l-4.3 11.4h-1.4l-4.4-11.4Zm-.9 0h1.7l.3 7.6v3.8h-2V187Zm10 0h1.7v11.4h-2v-3.8l.3-7.6Zm44.9 0v11.4h-2V187h2Zm3.5 0v1.6h-9V187h9Zm40.9 8.8 2.3-8.8h1.2l-.1 2.3-2.5 9h-1.2l.3-2.5Zm-1.7-8.8 1.9 8.8.2 2.6h-1.4l-2.6-11.4h2Zm7.8 8.7 1.8-8.7h2l-2.7 11.4h-1.3l.2-2.7Zm-2.1-8.7 2.2 8.9.3 2.5h-1.2l-2.4-9.1-.1-2.3h1.2Zm47.6 0v11.4h-2V187h2Zm3.5 0v1.6h-9V187h9Zm42.7 0v11.4h-2V187h2Zm4.6 5v1.5h-5.1V192h5.1Zm.7-5v1.6h-5.8V187h5.8Zm45.8 8.5-.1-.7-.4-.5a3 3 0 0 0-.7-.4 10 10 0 0 0-1.3-.5l-1.5-.5-1.2-.7a2.7 2.7 0 0 1-1-2.2 2.8 2.8 0 0 1 1.1-2.3 4 4 0 0 1 1.3-.6c.5-.2 1-.2 1.6-.2.9 0 1.6.1 2.2.4.6.3 1.1.8 1.4 1.3.4.5.5 1 .5 1.7h-2c0-.4 0-.7-.2-1-.1-.3-.4-.5-.7-.7l-1.2-.2c-.5 0-.8 0-1.1.2-.4.1-.6.3-.7.6-.2.2-.3.5-.3.8 0 .2 0 .4.2.6l.4.5.8.4 1 .3c.7.2 1.3.4 1.7.7.5.2.9.4 1.2.7a2.8 2.8 0 0 1 1 2.2 2.8 2.8 0 0 1-1.1 2.3 4 4 0 0 1-1.3.6 6 6 0 0 1-4.8-.6 4 4 0 0 1-1-1.2c-.2-.4-.4-1-.4-1.6h2c0 .4 0 .7.2 1 .1.3.3.5.5.6l.8.4a4 4 0 0 0 2.1 0c.4-.2.6-.4.7-.6.2-.3.3-.5.3-.8Z"/><path fill="#020202" d="M80.3 283v.8l-4.7 10.6H74l4.8-10.2h-6.2V283h7.7Zm-7.6 48v11.4h-1.5v-9.6l-2.9 1v-1.3l4.2-1.6h.2Zm11.9 7.6v1.1h-8.2v-.8l5-7.9h1.3l-1.3 2.3-3.4 5.3h6.6ZM83 331v11.4h-1.4V331H83Zm-7.6 58.2v1.2h-7.5v-1l3.8-4.2 1-1.3.6-1 .1-.8c0-.4 0-.8-.2-1-.2-.4-.4-.6-.7-.8a2 2 0 0 0-1-.3c-.6 0-1 .1-1.3.3-.4.2-.6.5-.8.8-.2.4-.2.8-.2 1.3h-1.5c0-.7.2-1.3.4-1.8.3-.5.7-1 1.3-1.3a4 4 0 0 1 2-.4 4 4 0 0 1 1.9.3c.5.3.9.6 1.1 1.1.3.4.5 1 .5 1.6l-.2 1-.5 1a15.7 15.7 0 0 1-1.5 2l-3 3.3h5.7Zm6.3-10.2v11.4h-1.5v-9.6l-2.9 1v-1.3l4.2-1.6h.2Zm-6.3 58.2v1.2h-7.5v-1l3.8-4.2 1-1.3.6-1 .1-.8c0-.4 0-.8-.2-1-.2-.4-.4-.6-.7-.8a2 2 0 0 0-1-.3c-.6 0-1 .1-1.3.3-.4.2-.6.5-.8.8-.2.4-.2.8-.2 1.3h-1.5c0-.7.2-1.3.4-1.8.3-.5.7-1 1.3-1.3a4 4 0 0 1 2-.4 4 4 0 0 1 1.9.3c.5.3.9.6 1.1 1.1.3.4.5 1 .5 1.6l-.2 1-.5 1a15.7 15.7 0 0 1-1.5 2l-3 3.3h5.7Zm8.7-1.9c0 .7-.2 1.3-.5 1.8a3 3 0 0 1-1.3 1c-.5.3-1.1.4-1.8.4s-1.3 0-1.9-.3a3 3 0 0 1-1.3-1.1c-.3-.5-.4-1.1-.4-1.8a3 3 0 0 1 2.1-2.9l1.5-.2c.7 0 1.3.1 1.8.4.6.3 1 .6 1.3 1 .3.6.5 1.1.5 1.7Zm-1.5 0c0-.4 0-.8-.2-1.1a2 2 0 0 0-.8-.8 2 2 0 0 0-1.1-.3c-.5 0-.9.1-1.2.3a2 2 0 0 0-.7.8 2 2 0 0 0-.3 1c0 .5.1.9.3 1.2.1.3.4.5.7.7.3.2.7.3 1.2.3a2 2 0 0 0 1.1-.3c.4-.2.6-.4.8-.7.2-.3.2-.7.2-1.1Zm1.2-5.3c0 .5-.1 1-.4 1.5a3 3 0 0 1-1.2 1c-.5.3-1 .4-1.7.4s-1.2-.1-1.8-.4a3 3 0 0 1-1.1-1 3 3 0 0 1-.5-1.5c0-.7.2-1.3.5-1.7.2-.5.6-.8 1.2-1a4 4 0 0 1 1.7-.4 4 4 0 0 1 1.7.3c.5.3 1 .6 1.2 1 .3.5.4 1.1.4 1.8Zm-1.4 0c0-.4 0-.7-.3-1-.1-.3-.3-.5-.6-.7a2 2 0 0 0-1-.3 2 2 0 0 0-1 .3c-.3.1-.5.4-.7.7l-.2 1c0 .4 0 .7.2 1l.7.7c.3.2.6.2 1 .2s.7 0 1-.2c.3-.2.5-.4.6-.7.2-.3.3-.6.3-1Zm43.3-195v11.4h-1.5v-9.7l-2.9 1.1v-1.3l4.2-1.6h.2Zm2.4 56.3c0 .7-.2 1.3-.5 1.8a3 3 0 0 1-1.3 1c-.5.3-1.1.4-1.8.4s-1.3 0-1.9-.3a3 3 0 0 1-1.3-1.1c-.3-.5-.4-1.1-.4-1.8a3 3 0 0 1 2.1-2.9l1.5-.2c.7 0 1.3.1 1.8.4.6.3 1 .6 1.3 1 .3.6.5 1.1.5 1.7Zm-1.5 0c0-.4 0-.8-.2-1.1a2 2 0 0 0-.8-.8 2 2 0 0 0-1.1-.3c-.5 0-.9.1-1.2.3a2 2 0 0 0-.7.8 2 2 0 0 0-.3 1c0 .5.1.9.3 1.2.1.3.4.5.7.7.3.2.7.3 1.2.3a2 2 0 0 0 1.1-.3c.4-.2.6-.4.8-.7.2-.3.2-.7.2-1.1Zm1.2-5.3c0 .5-.1 1-.4 1.5a3 3 0 0 1-1.2 1c-.5.3-1 .4-1.7.4s-1.2-.1-1.8-.4a3 3 0 0 1-1.1-1 3 3 0 0 1-.5-1.5c0-.7.2-1.3.5-1.7.2-.5.6-.8 1.2-1a4 4 0 0 1 1.7-.4 4 4 0 0 1 1.7.3c.5.3 1 .6 1.2 1 .3.5.4 1.1.4 1.8Zm-1.4 0c0-.4 0-.7-.3-1-.1-.3-.3-.5-.6-.7a2 2 0 0 0-1-.3 2 2 0 0 0-1 .3c-.3.1-.5.4-.7.7l-.2 1c0 .4 0 .7.2 1l.7.7c.3.2.6.2 1 .2s.7 0 1-.2c.3-.2.5-.4.6-.7.2-.3.3-.6.3-1Zm-5.7 45v11.4h-1.5v-9.6l-2.9 1v-1.3l4.2-1.6h.2Zm6.1 6-1.2-.3.6-5.7h5.8v1.3h-4.6l-.3 3.1.7-.3 1.2-.2c.5 0 1 .1 1.4.3l1 .8c.3.3.6.7.7 1.2.2.5.2 1 .2 1.6 0 .5 0 1-.2 1.5l-.6 1.2a3 3 0 0 1-1.2.8l-1.6.2-1.3-.1-1-.6c-.4-.3-.6-.6-.8-1a4 4 0 0 1-.4-1.4h1.4c0 .4.2.8.3 1 .2.4.5.6.8.7.3.2.6.3 1 .3l1-.2.6-.5.4-.9a3.6 3.6 0 0 0 0-2c0-.3-.2-.6-.4-.8a2 2 0 0 0-.7-.6l-1-.2-1 .2c-.3.2-.6.3-.8.6Zm-3.4 52.2v1.2h-7.5v-1l3.8-4.2 1-1.3.6-1 .1-.8c0-.4 0-.8-.2-1-.2-.4-.4-.6-.7-.8a2 2 0 0 0-1-.3c-.6 0-1 .1-1.3.3-.4.2-.6.5-.8.8-.2.4-.2.8-.2 1.3h-1.5c0-.7.2-1.3.4-1.8.3-.5.7-1 1.3-1.3a4 4 0 0 1 2-.4 4 4 0 0 1 1.9.3c.5.3.9.6 1.1 1.1.3.4.5 1 .5 1.6l-.2 1-.5 1a15.8 15.8 0 0 1-1.5 2l-3 3.3h5.7Zm9 0v1.2h-7.5v-1l3.8-4.2 1-1.3.6-1 .1-.8c0-.4 0-.8-.2-1-.2-.4-.4-.6-.7-.8a2 2 0 0 0-1-.3c-.6 0-1 .1-1.3.3-.4.2-.6.5-.8.8-.2.4-.2.8-.2 1.3h-1.5c0-.7.2-1.3.4-1.8.3-.5.7-1 1.3-1.3a4 4 0 0 1 2-.4 4 4 0 0 1 1.9.3c.5.3.9.6 1.1 1.1.3.4.5 1 .5 1.6l-.2 1-.5 1a15.8 15.8 0 0 1-1.5 2l-3 3.3h5.7Zm-9 48v1.2h-7.5v-1l3.8-4.2 1-1.3.6-1 .1-.8c0-.4 0-.8-.2-1-.2-.4-.4-.6-.7-.8a2 2 0 0 0-1-.3c-.6 0-1 .1-1.3.3-.4.2-.6.5-.8.8-.2.4-.2.8-.2 1.3h-1.5c0-.7.2-1.3.4-1.8.3-.5.7-1 1.3-1.3a4 4 0 0 1 2-.4 4 4 0 0 1 1.9.3c.5.3.9.6 1.1 1.1.3.4.5 1 .5 1.6l-.2 1-.5 1a15.8 15.8 0 0 1-1.5 2l-3 3.3h5.7Zm3 0h.1a5 5 0 0 0 2-.4c.6-.2 1-.5 1.3-1l.5-1.3.2-1.5v-1.7c0-.6 0-1-.2-1.4a3 3 0 0 0-.5-1c-.2-.3-.4-.5-.7-.6-.2-.2-.5-.3-.8-.3a1.9 1.9 0 0 0-1.6.8l-.4.8a3.8 3.8 0 0 0 .4 3l.6.6 1 .2c.3 0 .6 0 .9-.2a2.6 2.6 0 0 0 1.2-1.3l.3-.9h.7c0 .5-.1.9-.3 1.3a4 4 0 0 1-1.8 2 3 3 0 0 1-1.3.3 3 3 0 0 1-2.5-1.2 4 4 0 0 1-.5-1.2 5.1 5.1 0 0 1 0-3c.1-.4.4-.8.7-1.2a3 3 0 0 1 1-.8c.5-.2 1-.3 1.6-.3.6 0 1.2 0 1.7.3l1 1c.4.5.6 1 .7 1.6.2.5.2 1 .2 1.7v2.3l-.5 1.7c-.2.6-.5 1-1 1.5-.3.4-.9.8-1.5 1-.7.3-1.4.4-2.4.4h-.1v-1.2Zm50-192v1.2h-7.5v-1l3.8-4.2 1-1.3.6-1 .1-.8c0-.4 0-.8-.2-1-.2-.4-.4-.6-.7-.8a2 2 0 0 0-1-.3c-.6 0-1 .1-1.3.3-.4.2-.6.5-.8.8-.2.4-.2.8-.2 1.3h-1.5c0-.7.2-1.3.4-1.8.3-.5.7-1 1.3-1.3a4 4 0 0 1 2-.4 4 4 0 0 1 1.9.3c.5.3.9.6 1.1 1.1.3.4.5 1 .5 1.6l-.2 1-.5 1a15.8 15.8 0 0 1-1.5 2l-3 3.3h5.7Zm-6 48h.1a5 5 0 0 0 2-.4c.6-.2 1-.5 1.3-1l.5-1.3.2-1.5v-1.7c0-.6 0-1-.2-1.4a3 3 0 0 0-.5-1c-.2-.3-.4-.5-.7-.6-.2-.2-.5-.3-.8-.3a1.9 1.9 0 0 0-1.6.8l-.4.8a3.8 3.8 0 0 0 .4 3l.6.6 1 .2c.3 0 .6 0 .9-.2a2.6 2.6 0 0 0 1.2-1.3l.3-.9h.7c0 .5-.1.9-.3 1.3a4 4 0 0 1-1.8 2 3 3 0 0 1-1.3.3 3 3 0 0 1-2.5-1.2 4 4 0 0 1-.5-1.2 5.1 5.1 0 0 1 0-3c.1-.4.4-.8.7-1.2a3 3 0 0 1 1-.8c.5-.2 1-.3 1.6-.3.6 0 1.2 0 1.7.3l1 1c.4.5.6 1 .7 1.6.2.5.2 1 .2 1.7v2.3l-.5 1.7c-.2.6-.5 1-1 1.5-.3.4-.9.8-1.5 1-.7.3-1.4.4-2.4.4h-.1v-1.2Zm-1.7 37.8v11.4h-1.5v-9.6l-2.9 1v-1.3l4.2-1.6h.2Zm9.8 0h.1v1.2h-.1c-.8 0-1.4.1-2 .4a3 3 0 0 0-1.2 1 4 4 0 0 0-.6 1.4c-.2.5-.2 1-.2 1.5v1.7c0 .5 0 1 .2 1.4 0 .3.2.7.4 1l.8.5c.2.2.5.2.8.2l.9-.1.6-.6.4-.8a3.7 3.7 0 0 0-.3-2.9 1.8 1.8 0 0 0-1.6-.8 2 2 0 0 0-1.1.3c-.4.2-.6.5-.9.8a2 2 0 0 0-.3 1h-.8c0-.6.2-1 .4-1.5.2-.4.5-.8.8-1a2 2 0 0 1 1-.6 3.7 3.7 0 0 1 2.6.1c.4.3.8.5 1 .9l.6 1.2a4.8 4.8 0 0 1 0 2.9c-.2.4-.4.9-.7 1.2a3 3 0 0 1-1.1.8c-.4.2-1 .3-1.5.3-.6 0-1.2 0-1.6-.3a4 4 0 0 1-1.2-1l-.7-1.5-.2-1.5v-.7l.3-2.4a5 5 0 0 1 .8-2c.4-.7 1-1.2 1.7-1.6.7-.3 1.6-.5 2.7-.5Zm-7.1 58.2v1.2h-7.5v-1l3.8-4.2 1-1.3.6-1 .1-.8c0-.4 0-.8-.2-1-.2-.4-.4-.6-.7-.8a2 2 0 0 0-1-.3c-.6 0-1 .1-1.3.3-.4.2-.6.5-.8.8-.2.4-.2.8-.2 1.3h-1.5c0-.7.2-1.3.4-1.8.3-.5.7-1 1.3-1.3a4 4 0 0 1 2-.4 4 4 0 0 1 1.9.3c.5.3.9.6 1.1 1.1.3.4.5 1 .5 1.6l-.2 1-.5 1a15.8 15.8 0 0 1-1.5 2l-3 3.3h5.7Zm3.6-5.2h1c.6 0 1-.1 1.3-.3.4-.1.6-.4.8-.7l.2-1c0-.4 0-.8-.2-1-.2-.4-.4-.6-.7-.7-.3-.2-.6-.3-1-.3-.5 0-.8.1-1.2.3a1.8 1.8 0 0 0-1 1.7h-1.4c0-.6.2-1.1.5-1.6.2-.5.7-.8 1.2-1.1.5-.3 1.1-.4 1.8-.4s1.3 0 1.8.3 1 .6 1.2 1.1c.3.5.5 1 .5 1.8l-.2.9-.7.9c-.2.3-.6.5-1 .7-.5.2-1 .3-1.6.3H175v-1Zm0 1.2v-.9h1.3c.7 0 1.3 0 1.8.3a2.4 2.4 0 0 1 1.7 1.6l.1 1c0 .5 0 1-.2 1.4-.2.4-.5.8-.8 1-.3.4-.7.6-1.1.7-.5.2-1 .2-1.5.2s-1 0-1.4-.2c-.4-.1-.8-.3-1.1-.6a2.9 2.9 0 0 1-1-2.3h1.4c0 .4 0 .7.2 1l.8.7c.3.2.7.3 1.1.3.5 0 .9-.1 1.2-.3.3-.1.5-.4.7-.7.2-.3.3-.7.3-1.2a2 2 0 0 0-.3-1.1c-.2-.3-.5-.6-.9-.7-.3-.2-.7-.2-1.2-.2h-1Zm-9 46.8h1c.6 0 1-.1 1.3-.3.4-.1.6-.4.8-.7l.2-1c0-.4 0-.8-.2-1-.2-.4-.4-.6-.7-.7-.3-.2-.6-.3-1-.3-.5 0-.8.1-1.2.3a1.8 1.8 0 0 0-1 1.7h-1.4c0-.6.2-1.1.5-1.6.2-.5.7-.8 1.2-1.1.5-.3 1.1-.4 1.8-.4s1.3 0 1.8.3 1 .6 1.2 1.1c.3.5.5 1 .5 1.8l-.2.9-.7.9c-.2.3-.6.5-1 .7-.5.2-1 .3-1.6.3H166v-1Zm0 1.2v-.9h1.3c.7 0 1.3 0 1.8.3a2.4 2.4 0 0 1 1.7 1.6l.1 1c0 .5 0 1-.2 1.4-.2.4-.5.8-.8 1-.3.4-.7.6-1.1.7-.5.2-1 .2-1.5.2s-1 0-1.4-.2c-.4-.1-.8-.3-1.1-.6a2.9 2.9 0 0 1-1-2.3h1.4c0 .4 0 .7.2 1l.8.7c.3.2.7.3 1.1.3.5 0 .9-.1 1.2-.3.3-.1.5-.4.7-.7.2-.3.3-.7.3-1.2a2 2 0 0 0-.3-1.1c-.2-.3-.5-.6-.9-.7-.3-.2-.7-.2-1.2-.2h-1Zm14-1.4v1.7c0 1 0 1.7-.2 2.4a3.5 3.5 0 0 1-1.8 2.4 4.3 4.3 0 0 1-2.7 0c-.4 0-.7-.2-1-.4l-.8-1-.5-1.4-.1-2v-1.7c0-1 0-1.7.2-2.4a4 4 0 0 1 .8-1.5c.3-.4.6-.6 1-.8.5-.2 1-.2 1.6-.2l1.2.1a2.8 2.8 0 0 1 1.7 1.4l.5 1.4.2 2Zm-1.4 2v-2.3a8.4 8.4 0 0 0-.3-2.3 2 2 0 0 0-.5-.7c-.1-.1-.3-.3-.6-.3l-.7-.2a2 2 0 0 0-1 .2l-.6.6-.4 1.1-.2 1.6v2.3l.1 1.3c0 .4.2.7.3 1l.4.7.6.4.8.2 1-.3c.2 0 .4-.3.6-.6l.4-1.1.1-1.6ZM219 240h1c.6 0 1-.1 1.3-.3.4-.1.6-.4.8-.7l.2-1c0-.4 0-.8-.2-1-.2-.4-.4-.6-.7-.7-.3-.2-.6-.3-1-.3-.5 0-.8.1-1.2.3a1.8 1.8 0 0 0-1 1.7h-1.4c0-.6.2-1.1.5-1.6.2-.5.7-.8 1.2-1.1.5-.3 1.1-.4 1.8-.4s1.3 0 1.8.3 1 .6 1.2 1.1c.3.5.5 1 .5 1.8l-.2.9-.7.9c-.2.3-.6.5-1 .7-.5.2-1 .3-1.6.3H219v-1Zm0 1.2v-.9h1.3c.7 0 1.3 0 1.8.3.4.1.8.4 1 .7.4.2.6.6.7.9l.1 1c0 .5 0 1-.2 1.4-.2.4-.5.8-.8 1-.3.4-.7.6-1.1.7-.5.2-1 .2-1.5.2s-1 0-1.4-.2c-.4-.1-.8-.3-1.1-.6a2.9 2.9 0 0 1-1-2.3h1.4c0 .4 0 .7.2 1l.8.7c.3.2.7.3 1.1.3.5 0 .9-.1 1.2-.3.3-.1.5-.4.7-.7.2-.3.3-.7.3-1.2a2 2 0 0 0-.3-1.1c-.2-.3-.5-.6-.9-.7-.3-.2-.7-.2-1.2-.2h-1Zm-2.3 41.8v11.4h-1.5v-9.6l-2.9 1v-1.3l4.2-1.6h.2Zm11.3 4.8v1.7c0 1 0 1.7-.2 2.4a3.5 3.5 0 0 1-1.8 2.4 4.3 4.3 0 0 1-2.7 0c-.4 0-.7-.2-1-.4l-.8-1-.5-1.4-.1-2v-1.7c0-1 0-1.7.2-2.4a4 4 0 0 1 .8-1.5c.3-.4.6-.6 1-.8.5-.2 1-.2 1.6-.2l1.2.1a2.8 2.8 0 0 1 1.7 1.4l.5 1.4.2 2Zm-1.4 2v-2.3a8.4 8.4 0 0 0-.3-2.3 2 2 0 0 0-.5-.7c-.1-.1-.3-.3-.6-.3l-.7-.2a2 2 0 0 0-1 .2l-.6.6-.4 1.1-.2 1.6v2.3l.1 1.3c0 .4.2.7.3 1l.4.7.6.4.8.2 1-.3c.2 0 .4-.3.6-.6l.4-1.1.1-1.6Zm-9.9 41.2v11.4h-1.5v-9.6l-2.9 1v-1.3l4.2-1.6h.2Zm11.6 0v.8l-4.7 10.6H222l4.8-10.2h-6.2V331h7.7Zm-8.9 58.2v1.2h-7.5v-1l3.8-4.2 1-1.3.6-1 .1-.8c0-.4 0-.8-.2-1-.2-.4-.4-.6-.7-.8a2 2 0 0 0-1-.3c-.6 0-1 .1-1.3.3-.4.2-.6.5-.8.8-.2.4-.2.8-.2 1.3h-1.5c0-.7.2-1.3.4-1.8.3-.5.7-1 1.3-1.3a4 4 0 0 1 2-.4 4 4 0 0 1 1.9.3c.5.3.9.6 1.1 1.1.3.4.5 1 .5 1.6l-.2 1-.5 1a15.8 15.8 0 0 1-1.5 2l-3 3.3h5.7Zm9.2-2.6v1.1h-8.2v-.8l5-7.9h1.3l-1.3 2.3-3.4 5.3h6.6ZM227 379v11.4h-1.4V379h1.4Zm45.6-136.4v1.1h-8.2v-.8l5-7.9h1.3l-1.3 2.3-3.4 5.3h6.6ZM271 235v11.4h-1.4V235h1.4Zm-6.3 48v11.4h-1.5v-9.6l-2.9 1v-1.3l4.2-1.6h.2Zm9 0v11.4h-1.5v-9.6l-2.9 1v-1.3l4.2-1.6h.2Zm-9 48v11.4h-1.5v-9.6l-2.9 1v-1.3l4.2-1.6h.2Zm11.4 8.3c0 .7-.2 1.3-.5 1.8a3 3 0 0 1-1.3 1c-.5.3-1.1.4-1.8.4s-1.3 0-1.9-.3a3 3 0 0 1-1.3-1.1c-.3-.5-.4-1.1-.4-1.8a3 3 0 0 1 2.1-2.9l1.5-.2c.7 0 1.3.1 1.8.4.6.3 1 .6 1.3 1 .3.6.5 1.1.5 1.7Zm-1.5 0c0-.4 0-.8-.2-1.1a2 2 0 0 0-.8-.8 2 2 0 0 0-1.1-.3c-.5 0-.9.1-1.2.3a2 2 0 0 0-.7.8 2 2 0 0 0-.3 1c0 .5.1.9.3 1.2.1.3.4.5.7.7.3.2.7.3 1.2.3a2 2 0 0 0 1.1-.3c.4-.2.6-.4.8-.7.2-.3.2-.7.2-1.1Zm1.2-5.3c0 .5-.1 1-.4 1.5a3 3 0 0 1-1.2 1c-.5.3-1 .4-1.7.4s-1.2-.1-1.8-.4a3 3 0 0 1-1.1-1 3 3 0 0 1-.5-1.5c0-.7.2-1.3.5-1.7.2-.5.6-.8 1.1-1a4 4 0 0 1 1.8-.4 4 4 0 0 1 1.7.3c.5.3 1 .6 1.2 1 .3.5.4 1.1.4 1.8Zm-1.4 0c0-.4 0-.7-.3-1-.1-.3-.3-.5-.6-.7a2 2 0 0 0-1-.3 2 2 0 0 0-1 .3c-.3.1-.5.4-.7.7l-.2 1c0 .4 0 .7.2 1l.7.7c.3.2.6.2 1 .2s.7 0 1-.2c.3-.2.5-.4.6-.7.2-.3.3-.6.3-1Zm-7 55.2v1.2h-7.5v-1l3.8-4.2 1-1.3.6-1 .1-.8c0-.4 0-.8-.2-1-.2-.4-.4-.6-.7-.8a2 2 0 0 0-1-.3c-.6 0-1 .1-1.3.3-.4.2-.6.5-.8.8-.2.4-.2.8-.2 1.3h-1.5c0-.7.2-1.3.4-1.8.3-.5.7-1 1.3-1.3a4 4 0 0 1 2-.4 4 4 0 0 1 1.9.3c.5.3.9.6 1.1 1.1.3.4.5 1 .5 1.6l-.2 1-.5 1a15.8 15.8 0 0 1-1.5 2l-3 3.3h5.7Zm3.4-4.2-1.2-.3.6-5.7h5.8v1.3h-4.6l-.3 3.1.7-.3 1.2-.2c.5 0 1 .1 1.4.3l1 .8c.3.3.6.7.7 1.2.2.5.2 1 .2 1.6 0 .5 0 1-.2 1.5l-.6 1.2a3 3 0 0 1-1.2.8l-1.6.2-1.3-.1-1-.6c-.4-.3-.6-.6-.8-1a4 4 0 0 1-.4-1.4h1.4c0 .4.1.8.3 1 .2.4.5.6.8.7.3.2.6.3 1 .3l1-.2.6-.5.4-.9a3.6 3.6 0 0 0 0-2c0-.3-.2-.6-.4-.8a2 2 0 0 0-.7-.6l-1-.2-1 .2c-.3.2-.6.3-.8.6Zm44-144-1.2-.3.6-5.7h5.8v1.3h-4.6l-.3 3.1.7-.3 1.2-.2c.5 0 1 .1 1.4.3l1 .8c.3.3.6.7.7 1.2.2.5.2 1 .2 1.6 0 .5 0 1-.2 1.5l-.6 1.2a3 3 0 0 1-1.2.8l-1.6.2-1.3-.1-1-.6c-.4-.3-.6-.6-.8-1a4 4 0 0 1-.4-1.4h1.4c0 .4.1.8.3 1 .2.4.5.6.8.7.3.2.6.3 1 .3l1-.2.6-.5.4-.9a3.6 3.6 0 0 0 0-2c0-.3-.2-.6-.4-.8a2 2 0 0 0-.7-.6l-1-.2-1 .2c-.3.2-.6.3-.8.6Zm-2.1 42v11.4h-1.5v-9.6l-2.9 1v-1.3l4.2-1.6h.2Zm11.7 10.2v1.2h-7.5v-1l3.8-4.2 1-1.3.6-1 .1-.8c0-.4 0-.8-.2-1-.2-.4-.4-.6-.7-.8a2 2 0 0 0-1-.3c-.6 0-1 .1-1.3.3-.4.2-.6.5-.8.8-.2.4-.2.8-.2 1.3h-1.5c0-.7.2-1.3.4-1.8.3-.5.7-1 1.3-1.3a4 4 0 0 1 2-.4 4 4 0 0 1 1.9.3c.5.3.9.6 1.1 1.1.3.4.5 1 .5 1.6l-.2 1-.5 1a15.8 15.8 0 0 1-1.5 2l-3 3.3h5.7ZM312.7 331v11.4h-1.5v-9.6l-2.9 1v-1.3l4.2-1.6h.2Zm5.7 10.2h.1a5 5 0 0 0 2-.4c.6-.2 1-.5 1.3-1l.5-1.3.2-1.5v-1.7c0-.6 0-1-.2-1.4a3 3 0 0 0-.5-1c-.2-.3-.4-.5-.7-.6-.2-.2-.5-.3-.8-.3a1.9 1.9 0 0 0-1.6.8l-.4.8a3.8 3.8 0 0 0 .4 3l.6.6 1 .2c.3 0 .6 0 .9-.2a2.6 2.6 0 0 0 1.2-1.3l.3-.9h.7c0 .5-.1.9-.3 1.3a4 4 0 0 1-1.8 2 3 3 0 0 1-1.3.3 3 3 0 0 1-2.5-1.2 4 4 0 0 1-.5-1.2 5.1 5.1 0 0 1 0-3c.1-.4.4-.8.7-1.2a3 3 0 0 1 1-.8c.5-.2 1-.3 1.6-.3.6 0 1.2 0 1.7.3l1 1c.4.5.6 1 .7 1.6.2.5.2 1 .2 1.7v2.3l-.5 1.7c-.2.6-.5 1-1 1.5-.3.4-.9.8-1.5 1-.6.3-1.4.4-2.4.4h-.1v-1.2Zm-3 48v1.2h-7.5v-1l3.8-4.2 1-1.3.6-1 .1-.8c0-.4 0-.8-.2-1-.2-.4-.4-.6-.7-.8a2 2 0 0 0-1-.3c-.6 0-1 .1-1.3.3-.4.2-.6.5-.8.8-.2.4-.2.8-.2 1.3h-1.5c0-.7.2-1.3.4-1.8.3-.5.7-1 1.3-1.3a4 4 0 0 1 2-.4 4 4 0 0 1 1.9.3c.5.3.9.6 1.1 1.1.3.4.5 1 .5 1.6l-.2 1-.5 1a15.8 15.8 0 0 1-1.5 2l-3 3.3h5.7Zm7.1-10.2h.1v1.2h-.1c-.8 0-1.4.1-2 .4a3 3 0 0 0-1.2 1 4 4 0 0 0-.6 1.4c-.2.5-.2 1-.2 1.5v1.7c0 .5 0 1 .2 1.4 0 .3.2.7.4 1l.8.5c.2.2.5.2.8.2l.9-.1.6-.6.4-.8a3.7 3.7 0 0 0-.3-2.9 1.8 1.8 0 0 0-1.6-.8 2 2 0 0 0-1.1.3c-.4.2-.6.5-.9.8a2 2 0 0 0-.3 1h-.8c0-.6.2-1 .4-1.5.2-.4.5-.8.8-1a2 2 0 0 1 1-.6 3.7 3.7 0 0 1 2.6.1c.4.3.8.5 1 .9l.6 1.2a4.8 4.8 0 0 1 0 2.9c-.2.4-.4.9-.7 1.2a3 3 0 0 1-1.1.8c-.4.2-1 .3-1.5.3-.6 0-1.2 0-1.6-.3a4 4 0 0 1-1.2-1l-.6-1.5-.3-1.5v-.7l.3-2.4a5 5 0 0 1 .8-2c.4-.7 1-1.2 1.7-1.6.7-.3 1.6-.5 2.7-.5Zm44-144h.1v1.2h-.1c-.8 0-1.4.1-2 .4a3 3 0 0 0-1.2 1 4 4 0 0 0-.6 1.4c-.2.5-.2 1-.2 1.5v1.7c0 .5 0 1 .2 1.4 0 .3.2.7.4 1l.8.5c.2.2.5.2.8.2l.9-.1.6-.6.4-.8a3.7 3.7 0 0 0-.3-2.9 1.8 1.8 0 0 0-1.6-.8 2 2 0 0 0-1.1.3c-.4.2-.6.5-.9.8a2 2 0 0 0-.3 1h-.8c0-.6.2-1 .4-1.5.2-.4.5-.8.8-1a2 2 0 0 1 1-.6 3.7 3.7 0 0 1 2.6.1c.4.3.8.5 1 .9l.6 1.2a4.8 4.8 0 0 1 0 2.9c-.2.4-.4.9-.7 1.2a3 3 0 0 1-1.1.8c-.4.2-1 .3-1.5.3-.6 0-1.2 0-1.6-.3a4 4 0 0 1-1.2-1l-.6-1.5-.3-1.5v-.7l.3-2.4a5 5 0 0 1 .8-2c.4-.7 1-1.2 1.7-1.6.7-.3 1.6-.5 2.7-.5Zm-5.8 48v11.4h-1.5v-9.6l-2.9 1v-1.3l4.2-1.6h.2Zm6.3 5h1c.6 0 1-.1 1.3-.3.4-.1.6-.4.8-.7l.2-1c0-.4 0-.8-.2-1-.2-.4-.4-.6-.7-.7-.3-.2-.6-.3-1-.3-.5 0-.8.1-1.1.3a1.8 1.8 0 0 0-1 1.7h-1.5c0-.6.2-1.1.5-1.6.2-.5.7-.8 1.2-1.1.5-.3 1.1-.4 1.8-.4s1.3 0 1.8.3 1 .6 1.2 1.1c.3.5.5 1 .5 1.8l-.2.9-.7.9c-.2.3-.6.5-1 .7-.5.2-1 .3-1.6.3H367v-1Zm0 1.2v-.9h1.3c.7 0 1.3 0 1.8.3a2.4 2.4 0 0 1 1.7 1.6l.1 1c0 .5 0 1-.2 1.4-.2.4-.5.8-.8 1-.3.4-.7.6-1.1.7-.5.2-1 .2-1.5.2s-1 0-1.4-.2c-.4-.1-.8-.3-1.1-.6a2.9 2.9 0 0 1-1-2.3h1.4c0 .4 0 .7.2 1l.8.7c.3.2.7.3 1.1.3.5 0 .9-.1 1.2-.3.3-.1.5-.4.7-.7.2-.3.3-.7.3-1.2a2 2 0 0 0-.3-1.1c-.2-.3-.5-.6-.9-.7-.3-.2-.7-.2-1.2-.2h-1Zm-3.6 52v1.2h-7.5v-1l3.8-4.2 1-1.3.6-1 .1-.8c0-.4 0-.8-.2-1-.2-.4-.4-.6-.7-.8a2 2 0 0 0-1-.3c-.6 0-1 .1-1.3.3-.4.2-.6.5-.8.8-.2.4-.2.8-.2 1.3h-1.5c0-.7.2-1.3.4-1.8.3-.5.7-1 1.3-1.3a4 4 0 0 1 2-.4 4 4 0 0 1 1.9.3c.5.3.9.6 1.1 1.1.3.4.5 1 .5 1.6l-.2 1-.5 1a15.8 15.8 0 0 1-1.5 2l-3 3.3h5.7Zm8.6-5.4v1.7c0 1 0 1.7-.2 2.4a3.5 3.5 0 0 1-1.8 2.4 4.3 4.3 0 0 1-2.7 0c-.4 0-.7-.2-1-.4l-.8-1-.5-1.4-.1-2v-1.7c0-1 0-1.7.2-2.4a4 4 0 0 1 .8-1.5c.3-.4.6-.6 1-.8.5-.2 1-.2 1.6-.2l1.2.1a2.8 2.8 0 0 1 1.7 1.4l.5 1.4.2 2Zm-1.4 2v-2.3a8.4 8.4 0 0 0-.3-2.3 2 2 0 0 0-.5-.7c-.1-.1-.3-.3-.6-.3l-.7-.2a2 2 0 0 0-1 .2l-.6.6-.4 1.1-.2 1.6v2.3l.1 1.3c0 .4.2.7.3 1l.4.7.6.4.8.2 1-.3c.2 0 .4-.3.6-.6l.4-1.1.1-1.6Zm-7.2 51.4v1.2h-7.5v-1l3.8-4.2 1-1.3.6-1 .1-.8c0-.4 0-.8-.2-1-.2-.4-.4-.6-.7-.8a2 2 0 0 0-1-.3c-.6 0-1 .1-1.3.3-.4.2-.6.5-.8.8-.2.4-.2.8-.2 1.3h-1.5c0-.7.2-1.3.4-1.8.3-.5.7-1 1.3-1.3a4 4 0 0 1 2-.4 4 4 0 0 1 1.9.3c.5.3.9.6 1.1 1.1.3.4.5 1 .5 1.6l-.2 1-.5 1a15.8 15.8 0 0 1-1.5 2l-3 3.3h5.7Zm8.9-10.2v.8l-4.7 10.6H366l4.8-10.2h-6.2V379h7.7ZM267.4 502l-3 8.5h-1.8l3.8-10h1.1l-.1 1.4Zm2.5 8.5-3-8.6-.1-1.3h1.1l3.8 10h-1.8Zm-.2-3.7v1.4h-5.4v-1.4h5.4Zm10.1.5h1.7a4 4 0 0 1-.5 1.7 3 3 0 0 1-1.3 1.2c-.6.3-1.3.5-2 .5a3.7 3.7 0 0 1-3-1.3 5.3 5.3 0 0 1-1.1-3.5v-.7c0-.8.1-1.4.3-2 .2-.6.5-1 .8-1.5l1.3-1c.5-.1 1-.3 1.7-.3a4 4 0 0 1 3.3 1.7c.3.5.5 1.1.5 1.8h-1.7c0-.5-.1-.8-.3-1.1-.1-.3-.4-.6-.6-.7-.3-.2-.7-.3-1.2-.3l-1 .2a2 2 0 0 0-.8.7l-.4 1-.2 1.4v.9c0 .5 0 1 .2 1.3 0 .5.2.8.4 1 .2.4.4.6.7.8l1 .2c.5 0 1 0 1.2-.2l.7-.7c.2-.3.3-.7.3-1.1Zm8.4-6.7v10h-1.7v-10h1.7Zm3.1 0v1.4h-7.9v-1.4h8Zm4.4 0v10H294v-10h1.7Zm11.4 4.7v.5c0 .8-.1 1.5-.3 2-.2.7-.5 1.2-.9 1.6-.3.4-.8.7-1.3 1-.5.2-1 .3-1.7.3a3 3 0 0 1-1.6-.4c-.5-.2-1-.5-1.3-1-.4-.3-.7-.8-.9-1.4-.2-.6-.3-1.3-.3-2v-.6c0-.8.1-1.4.3-2l.8-1.6 1.4-1c.5-.1 1-.3 1.6-.3.6 0 1.2.2 1.7.4s1 .5 1.3 1c.4.4.7.9.9 1.5.2.6.3 1.2.3 2Zm-1.8.5v-.5l-.1-1.5a3 3 0 0 0-.5-1 2 2 0 0 0-.8-.7c-.3-.2-.6-.2-1-.2-.3 0-.7 0-1 .2a2 2 0 0 0-.7.6l-.5 1.1a6 6 0 0 0-.2 1.5v.5c0 .6 0 1 .2 1.5l.5 1.1.7.7 1 .2c.4 0 .8 0 1-.2.4-.2.6-.4.8-.7l.5-1 .1-1.6Zm12.6-5.2v10h-1.7l-4.5-7.2v7.1H310v-10h1.7l4.5 7.2v-7.1h1.7Zm31.8 7.4v-.6a1 1 0 0 0-.4-.4l-.6-.4-1-.4c-.6-.1-1-.3-1.4-.5a5 5 0 0 1-1-.6c-.3-.2-.6-.5-.7-.8a2 2 0 0 1-.3-1.1 2.4 2.4 0 0 1 1-2l1.1-.5a4.8 4.8 0 0 1 3.4.2c.5.2 1 .6 1.2 1 .3.5.4 1 .4 1.6h-1.7c0-.3 0-.6-.2-.9l-.6-.6-1-.2c-.5 0-.8 0-1 .2l-.7.5-.2.7c0 .2 0 .3.2.5 0 .2.2.3.4.4.1.2.4.3.6.4l1 .3 1.4.6 1 .6a2.5 2.5 0 0 1 .9 2c0 .4-.1.8-.3 1.1l-.7.9-1.1.5a5.3 5.3 0 0 1-4.1-.6 2.8 2.8 0 0 1-1.2-2.4h1.6c0 .4 0 .6.2.9l.5.5c.2.2.4.3.7.3a3.4 3.4 0 0 0 1.8 0c.3-.1.5-.3.6-.5.2-.2.2-.5.2-.7Zm11 1.2v1.3h-5.2v-1.3h5.3Zm-4.7-8.6v10h-1.8v-10h1.8Zm4 4.1v1.4h-4.5v-1.4h4.6Zm.7-4.1v1.4h-5.2v-1.4h5.2Zm7 0v10h-1.8v-10h1.7Zm3 0v1.4h-7.9v-1.4h8Zm-295.8 5.7h1.7a4 4 0 0 1-.5 1.7c-.4.5-.8 1-1.4 1.2a4 4 0 0 1-2 .5 3.6 3.6 0 0 1-3-1.3 6.4 6.4 0 0 1-1-3.4v-.8c0-.8 0-1.4.3-2 .2-.6.4-1 .8-1.5l1.3-1c.5-.1 1-.3 1.7-.3.8 0 1.4.2 2 .5.5.3 1 .7 1.2 1.2.4.5.5 1.1.6 1.8H75c0-.5-.1-.8-.3-1.1-.2-.3-.4-.6-.7-.7a2 2 0 0 0-1.1-.3l-1 .2a2 2 0 0 0-.8.7 3 3 0 0 0-.4 1l-.2 1.4v.9l.1 1.3c.1.5.3.8.5 1 .1.4.4.6.7.8l1 .2c.5 0 .9 0 1.2-.2l.7-.7.3-1.1Zm10.7 1.9v1.3h-5v-1.3h5Zm-4.5-8.6v10h-1.7v-10h1.7Zm13.6 8.6v1.3h-5.3v-1.3h5.3Zm-4.8-8.6v10h-1.7v-10H90Zm4.1 4.1v1.4h-4.6v-1.4H94Zm.7-4.1v1.4h-5.3v-1.4h5.3Zm6.6 1.3-3 8.6h-1.8l3.7-10h1.2l-.1 1.4Zm2.4 8.6-3-8.6v-1.3h1l3.9 10h-1.9Zm0-3.7v1.4h-5.5v-1.4h5.4Zm4.2-6.2h3.5a5 5 0 0 1 2 .3c.5.3 1 .6 1.2 1 .3.5.4 1 .4 1.7 0 .5 0 1-.2 1.3l-.8 1-1.2.5-.5.3H109v-1.4h2.4c.4 0 .7 0 1-.2.3-.1.5-.3.6-.6l.2-.8c0-.4 0-.7-.2-1a1 1 0 0 0-.6-.5c-.3-.2-.6-.2-1-.2h-1.9v8.5H108v-10Zm5.7 10-2.3-4.5h1.8l2.3 4.3v.1h-1.8Z"/></g><rect width="407" height="484.3" x="16.5" y="70.7" stroke="#020202" rx="15.5"/></g><g clip-path="url(#c)"><path fill="#212121" fill-rule="evenodd" d="m173 604.7-1.4-1.3c-5.2-4.7-8.6-7.8-8.6-11.5 0-3.1 2.4-5.5 5.5-5.5a6 6 0 0 1 4.5 2 6 6 0 0 1 4.5-2c3 0 5.5 2.4 5.5 5.5 0 3.7-3.4 6.8-8.6 11.5l-1.4 1.3Z" clip-rule="evenodd"/><path fill="#212121" d="M195 571.5h1v48h-1v-48Z"/><path fill="#E0E0E0" d="M196 571.5h48v48h-48z"/><path fill="#212121" fill-rule="evenodd" d="m220 600.8 6.2 3.7-1.7-7 5.5-4.7-7.2-.6-2.8-6.7-2.8 6.7-7.2.6 5.5 4.7-1.7 7 6.2-3.7Z" clip-rule="evenodd"/><path fill="#212121" d="M244 571.5h1v48h-1v-48Z"/><path fill="#212121" fill-rule="evenodd" d="m267 604.7-1.4-1.3c-5.2-4.7-8.6-7.8-8.6-11.5 0-3.1 2.4-5.5 5.5-5.5a6 6 0 0 1 4.5 2 6 6 0 0 1 4.5-2c3 0 5.5 2.4 5.5 5.5 0 3.7-3.4 6.8-8.6 11.5l-1.4 1.3Z" clip-rule="evenodd"/></g><rect width="137" height="47" x="151.5" y="572" stroke="#020202" rx="3.5"/><path fill="#020202" d="M24.2 649.3v1.2h-5.7v-1.2h5.7Zm-5.4-10.1v11.3h-1.5v-11.3h1.5Zm12.1 9.8v-4.3l-.2-.8-.6-.6-1-.2c-.4 0-.7 0-1 .2a1 1 0 0 0-.6.5 1 1 0 0 0-.2.6h-1.5c0-.3 0-.6.2-.9l.7-.8 1-.6 1.5-.2a4 4 0 0 1 1.6.3c.5.3.8.6 1.1 1 .3.4.4 1 .4 1.6v4.8l.3.8v.1h-1.5l-.2-.6v-.8Zm.2-3.6v1h-1.4l-1.1.1c-.4 0-.6.2-.8.3l-.5.5c-.2.2-.2.4-.2.7 0 .3 0 .5.2.7 0 .2.3.4.5.5.2.2.5.2.9.2a2.4 2.4 0 0 0 2-1c.2-.2.3-.5.3-.7l.6.7-.3.7a3.5 3.5 0 0 1-1.6 1.4l-1.2.2c-.6 0-1-.1-1.5-.3-.4-.3-.8-.6-1-1-.3-.3-.4-.7-.4-1.2s.1-.9.3-1.2c.2-.4.4-.6.8-.9l1.2-.5 1.5-.2h1.7Zm3.6-6.9h1.5V649l-.2 1.6h-1.3v-12Zm7.2 7.7v.2c0 .6 0 1.2-.2 1.7l-.7 1.4a3 3 0 0 1-1 .9 3 3 0 0 1-1.4.3c-.5 0-1-.1-1.4-.3-.4-.2-.8-.4-1-.8-.3-.3-.5-.8-.7-1.2a8 8 0 0 1-.3-1.7v-.7c0-.7.1-1.2.3-1.7.2-.5.4-1 .7-1.3.2-.3.6-.6 1-.8.4-.2.8-.3 1.4-.3.5 0 1 .1 1.4.3.4.2.8.5 1 1 .3.3.5.8.7 1.3l.2 1.7Zm-1.5.2v-1.3a3 3 0 0 0-.5-1 1.9 1.9 0 0 0-1.7-1l-1 .2a2 2 0 0 0-.6.5l-.5.8-.2.8v1.9c0 .3.2.7.4 1 .2.4.4.6.7.8.4.3.8.4 1.2.4.4 0 .8-.1 1-.3.3-.1.5-.3.7-.6l.4-1 .1-1.2Zm7 4.3a3.6 3.6 0 0 1-3.6-2.4c-.2-.5-.3-1.1-.3-1.7v-.3c0-.7 0-1.3.3-1.9l.8-1.3a3.5 3.5 0 0 1 2.6-1.2c.6 0 1.1.1 1.5.3.5.3.9.5 1.1 1 .3.3.5.7.7 1.2l.2 1.7v.6h-6.4v-1.2h5l-.3-1.2a2 2 0 0 0-.6-.8c-.3-.3-.7-.4-1.2-.4a2 2 0 0 0-1.6.8 3 3 0 0 0-.5 1 5 5 0 0 0-.2 1.4v.3l.2 1.1.5 1 .8.6 1 .2c.6 0 1 0 1.3-.3l1-.8.9.7a4 4 0 0 1-.7.8l-1 .6a4 4 0 0 1-1.5.2Zm6.6-12.2v12h-1.4v-12h1.5Z"/><path fill="#BDBDBD" d="M390 645.5a7 7 0 0 1 7-7h20a7 7 0 1 1 0 14h-20a7 7 0 0 1-7-7Z"/><path fill="#757575" fill-rule="evenodd" d="M400 655.5a10 10 0 1 0 0-20 10 10 0 0 0 0 20Z" clip-rule="evenodd"/><path fill="#212121" fill-opacity=".1" d="M16 668.5h408v1H16v-1Z"/><path fill="#020202" d="M24.2 696.3v1.2h-5.7v-1.2h5.7Zm-5.4-10.1v11.3h-1.5v-11.3h1.5Zm12.1 9.8v-4.3l-.2-.8-.6-.6-1-.2c-.4 0-.7 0-1 .2a1 1 0 0 0-.6.5 1 1 0 0 0-.2.6h-1.5c0-.3 0-.6.2-.9l.7-.8 1-.6 1.5-.2a4 4 0 0 1 1.6.3c.5.3.8.6 1.1 1 .3.4.4 1 .4 1.6v4.8l.3.8v.1h-1.5l-.2-.6v-.8Zm.2-3.6v1h-1.4l-1.1.1c-.4 0-.6.2-.8.3l-.5.5c-.2.2-.2.4-.2.7 0 .3 0 .5.2.7 0 .2.3.4.5.5.2.2.5.2.9.2a2.4 2.4 0 0 0 2-1c.2-.2.3-.5.3-.7l.6.7-.3.7a3.5 3.5 0 0 1-1.6 1.4l-1.2.2c-.6 0-1-.1-1.5-.3-.4-.3-.8-.6-1-1-.3-.3-.4-.7-.4-1.2s.1-.9.3-1.2c.2-.4.4-.6.8-.9l1.2-.5 1.5-.2h1.7Zm3.6-6.9h1.5V696l-.2 1.6h-1.3v-12Zm7.2 7.7v.2c0 .6 0 1.2-.2 1.7l-.7 1.4a3 3 0 0 1-1 .9 3 3 0 0 1-1.4.3c-.5 0-1-.1-1.4-.3-.4-.2-.8-.4-1-.8-.3-.3-.5-.8-.7-1.2a8 8 0 0 1-.3-1.7v-.7c0-.7.1-1.2.3-1.7.2-.5.4-1 .7-1.3.2-.3.6-.6 1-.8.4-.2.8-.3 1.4-.3.5 0 1 .1 1.4.3.4.2.8.5 1 1 .3.3.5.8.7 1.3l.2 1.7Zm-1.5.2v-1.3a3 3 0 0 0-.5-1 1.9 1.9 0 0 0-1.7-1l-1 .2a2 2 0 0 0-.6.5l-.5.8-.2.8v1.9c0 .3.2.7.4 1 .2.4.4.6.7.8.4.3.8.4 1.2.4.4 0 .8-.1 1-.3.3-.1.5-.3.7-.6l.4-1 .1-1.2Zm7 4.3a3.6 3.6 0 0 1-3.6-2.4c-.2-.5-.3-1.1-.3-1.7v-.3c0-.7 0-1.3.3-1.9l.8-1.3a3.5 3.5 0 0 1 2.6-1.2c.6 0 1.1.1 1.5.3.5.3.9.5 1.1 1 .3.3.5.7.7 1.2l.2 1.7v.6h-6.4v-1.2h5l-.3-1.2a2 2 0 0 0-.6-.8c-.3-.3-.7-.4-1.2-.4a2 2 0 0 0-1.6.8 3 3 0 0 0-.5 1 5 5 0 0 0-.2 1.4v.3l.2 1.1.5 1 .8.6 1 .2c.6 0 1 0 1.3-.3l1-.8.9.7a4 4 0 0 1-.7.8l-1 .6a4 4 0 0 1-1.5.2Zm6.6-12.2v12h-1.4v-12h1.5Z"/><path fill="#fff" d="m409.6 695.5-3.2-3.2-1 1 4.2 4.3 9-9-1-1-8 7.9Z"/><path fill="#212121" fill-opacity=".1" d="M16 715.5h408v1H16v-1Z"/><defs><clipPath id="b"><rect width="408" height="485.3" x="16" y="70.2" fill="#fff" rx="16"/></clipPath><clipPath id="c"><rect width="138" height="48" x="151" y="571.5" fill="#fff" rx="4"/></clipPath><filter id="a" width="408" height="487.3" x="16" y="70.2" color-interpolation-filters="sRGB" filterUnits="userSpaceOnUse"><feFlood flood-opacity="0" result="BackgroundImageFix"/><feColorMatrix in="SourceAlpha" result="hardAlpha" values="0 0 0 0 0 0 0 0 0 0 0 0 0 0 0 0 0 0 127 0"/><feOffset dy="2"/><feColorMatrix values="0 0 0 0 0 0 0 0 0 0 0 0 0 0 0 0 0 0 1 0"/><feBlend in2="BackgroundImageFix" result="effect1_dropShadow_300_4"/><feBlend in="SourceGraphic" in2="effect1_dropShadow_300_4" result="shape"/></filter></defs></svg>